%TF.GenerationSoftware,KiCad,Pcbnew,8.0.1-8.0.1-1~ubuntu22.04.1*%
%TF.CreationDate,2024-05-09T18:35:26+02:00*%
%TF.ProjectId,FCK_SM-028_V1.3,46434b5f-534d-42d3-9032-385f56312e33,rev?*%
%TF.SameCoordinates,Original*%
%TF.FileFunction,Drillmap*%
%TF.FilePolarity,Positive*%
%FSLAX45Y45*%
G04 Gerber Fmt 4.5, Leading zero omitted, Abs format (unit mm)*
G04 Created by KiCad (PCBNEW 8.0.1-8.0.1-1~ubuntu22.04.1) date 2024-05-09 18:35:26*
%MOMM*%
%LPD*%
G01*
G04 APERTURE LIST*
%ADD10C,0.100000*%
%ADD11C,0.200000*%
G04 APERTURE END LIST*
D10*
X13140000Y-9810000D02*
X12990000Y-9810000D01*
X12990000Y-9810000D02*
X12990000Y-8330000D01*
X14340000Y-9810000D02*
X14340000Y-10130000D01*
X14510000Y-8330000D02*
X14510000Y-9810000D01*
X12990000Y-8330000D02*
X14510000Y-8330000D01*
X14340000Y-10130000D02*
X13140000Y-10130000D01*
X13140000Y-10130000D02*
X13140000Y-9810000D01*
X14510000Y-9810000D02*
X14340000Y-9810000D01*
D11*
D10*
X13005000Y-9183000D02*
X13045000Y-9223000D01*
X13045000Y-9183000D02*
X13005000Y-9223000D01*
X13050000Y-9433000D02*
X13090000Y-9473000D01*
X13090000Y-9433000D02*
X13050000Y-9473000D01*
X13250000Y-9218000D02*
X13290000Y-9258000D01*
X13290000Y-9218000D02*
X13250000Y-9258000D01*
X13250000Y-9308000D02*
X13290000Y-9348000D01*
X13290000Y-9308000D02*
X13250000Y-9348000D01*
X13250000Y-9408000D02*
X13290000Y-9448000D01*
X13290000Y-9408000D02*
X13250000Y-9448000D01*
X13264000Y-8829000D02*
X13304000Y-8869000D01*
X13304000Y-8829000D02*
X13264000Y-8869000D01*
X13340000Y-9118000D02*
X13380000Y-9158000D01*
X13380000Y-9118000D02*
X13340000Y-9158000D01*
X13340000Y-9218000D02*
X13380000Y-9258000D01*
X13380000Y-9218000D02*
X13340000Y-9258000D01*
X13340000Y-9308000D02*
X13380000Y-9348000D01*
X13380000Y-9308000D02*
X13340000Y-9348000D01*
X13340000Y-9408000D02*
X13380000Y-9448000D01*
X13380000Y-9408000D02*
X13340000Y-9448000D01*
X13340000Y-9508000D02*
X13380000Y-9548000D01*
X13380000Y-9508000D02*
X13340000Y-9548000D01*
X13415000Y-8829000D02*
X13455000Y-8869000D01*
X13455000Y-8829000D02*
X13415000Y-8869000D01*
X13440000Y-9118000D02*
X13480000Y-9158000D01*
X13480000Y-9118000D02*
X13440000Y-9158000D01*
X13440000Y-9218000D02*
X13480000Y-9258000D01*
X13480000Y-9218000D02*
X13440000Y-9258000D01*
X13440000Y-9308000D02*
X13480000Y-9348000D01*
X13480000Y-9308000D02*
X13440000Y-9348000D01*
X13440000Y-9308000D02*
X13480000Y-9348000D01*
X13480000Y-9308000D02*
X13440000Y-9348000D01*
X13440000Y-9308000D02*
X13480000Y-9348000D01*
X13480000Y-9308000D02*
X13440000Y-9348000D01*
X13440000Y-9408000D02*
X13480000Y-9448000D01*
X13480000Y-9408000D02*
X13440000Y-9448000D01*
X13440000Y-9508000D02*
X13480000Y-9548000D01*
X13480000Y-9508000D02*
X13440000Y-9548000D01*
X13470000Y-9690000D02*
X13510000Y-9730000D01*
X13510000Y-9690000D02*
X13470000Y-9730000D01*
X13530000Y-9118000D02*
X13570000Y-9158000D01*
X13570000Y-9118000D02*
X13530000Y-9158000D01*
X13530000Y-9218000D02*
X13570000Y-9258000D01*
X13570000Y-9218000D02*
X13530000Y-9258000D01*
X13530000Y-9308000D02*
X13570000Y-9348000D01*
X13570000Y-9308000D02*
X13530000Y-9348000D01*
X13530000Y-9408000D02*
X13570000Y-9448000D01*
X13570000Y-9408000D02*
X13530000Y-9448000D01*
X13530000Y-9508000D02*
X13570000Y-9548000D01*
X13570000Y-9508000D02*
X13530000Y-9548000D01*
X13620000Y-9218000D02*
X13660000Y-9258000D01*
X13660000Y-9218000D02*
X13620000Y-9258000D01*
X13620000Y-9308000D02*
X13660000Y-9348000D01*
X13660000Y-9308000D02*
X13620000Y-9348000D01*
X13620000Y-9408000D02*
X13660000Y-9448000D01*
X13660000Y-9408000D02*
X13620000Y-9448000D01*
X13770000Y-9761000D02*
X13810000Y-9801000D01*
X13810000Y-9761000D02*
X13770000Y-9801000D01*
X13782000Y-8829000D02*
X13822000Y-8869000D01*
X13822000Y-8829000D02*
X13782000Y-8869000D01*
X13844000Y-9704000D02*
X13884000Y-9744000D01*
X13884000Y-9704000D02*
X13844000Y-9744000D01*
X13884000Y-9546000D02*
X13924000Y-9586000D01*
X13924000Y-9546000D02*
X13884000Y-9586000D01*
X13896000Y-9330000D02*
X13936000Y-9370000D01*
X13936000Y-9330000D02*
X13896000Y-9370000D01*
X13962000Y-9656000D02*
X14002000Y-9696000D01*
X14002000Y-9656000D02*
X13962000Y-9696000D01*
X14085250Y-9145000D02*
X14125250Y-9185000D01*
X14125250Y-9145000D02*
X14085250Y-9185000D01*
X14085250Y-9374000D02*
X14125250Y-9414000D01*
X14125250Y-9374000D02*
X14085250Y-9414000D01*
X14085250Y-9604000D02*
X14125250Y-9644000D01*
X14125250Y-9604000D02*
X14085250Y-9644000D01*
X14092000Y-8921000D02*
X14132000Y-8961000D01*
X14132000Y-8921000D02*
X14092000Y-8961000D01*
X14292000Y-8921000D02*
X14332000Y-8961000D01*
X14332000Y-8921000D02*
X14292000Y-8961000D01*
X14292750Y-9374000D02*
X14332750Y-9414000D01*
X14332750Y-9374000D02*
X14292750Y-9414000D01*
X14292750Y-9604000D02*
X14332750Y-9644000D01*
X14332750Y-9604000D02*
X14292750Y-9644000D01*
X14371000Y-8429000D02*
X14411000Y-8469000D01*
X14411000Y-8429000D02*
X14371000Y-8469000D01*
X14374000Y-8648000D02*
X14414000Y-8688000D01*
X14414000Y-8648000D02*
X14374000Y-8688000D01*
D11*
X13245777Y-10446484D02*
X13245777Y-10246484D01*
X13245777Y-10246484D02*
X13293396Y-10246484D01*
X13293396Y-10246484D02*
X13321967Y-10256008D01*
X13321967Y-10256008D02*
X13341015Y-10275055D01*
X13341015Y-10275055D02*
X13350539Y-10294103D01*
X13350539Y-10294103D02*
X13360062Y-10332198D01*
X13360062Y-10332198D02*
X13360062Y-10360770D01*
X13360062Y-10360770D02*
X13350539Y-10398865D01*
X13350539Y-10398865D02*
X13341015Y-10417912D01*
X13341015Y-10417912D02*
X13321967Y-10436960D01*
X13321967Y-10436960D02*
X13293396Y-10446484D01*
X13293396Y-10446484D02*
X13245777Y-10446484D01*
X13445777Y-10446484D02*
X13445777Y-10313150D01*
X13445777Y-10351246D02*
X13455301Y-10332198D01*
X13455301Y-10332198D02*
X13464824Y-10322674D01*
X13464824Y-10322674D02*
X13483872Y-10313150D01*
X13483872Y-10313150D02*
X13502920Y-10313150D01*
X13569586Y-10446484D02*
X13569586Y-10313150D01*
X13569586Y-10246484D02*
X13560062Y-10256008D01*
X13560062Y-10256008D02*
X13569586Y-10265531D01*
X13569586Y-10265531D02*
X13579110Y-10256008D01*
X13579110Y-10256008D02*
X13569586Y-10246484D01*
X13569586Y-10246484D02*
X13569586Y-10265531D01*
X13693396Y-10446484D02*
X13674348Y-10436960D01*
X13674348Y-10436960D02*
X13664824Y-10417912D01*
X13664824Y-10417912D02*
X13664824Y-10246484D01*
X13798158Y-10446484D02*
X13779110Y-10436960D01*
X13779110Y-10436960D02*
X13769586Y-10417912D01*
X13769586Y-10417912D02*
X13769586Y-10246484D01*
X14026729Y-10446484D02*
X14026729Y-10246484D01*
X14026729Y-10246484D02*
X14093396Y-10389341D01*
X14093396Y-10389341D02*
X14160062Y-10246484D01*
X14160062Y-10246484D02*
X14160062Y-10446484D01*
X14341015Y-10446484D02*
X14341015Y-10341722D01*
X14341015Y-10341722D02*
X14331491Y-10322674D01*
X14331491Y-10322674D02*
X14312443Y-10313150D01*
X14312443Y-10313150D02*
X14274348Y-10313150D01*
X14274348Y-10313150D02*
X14255301Y-10322674D01*
X14341015Y-10436960D02*
X14321967Y-10446484D01*
X14321967Y-10446484D02*
X14274348Y-10446484D01*
X14274348Y-10446484D02*
X14255301Y-10436960D01*
X14255301Y-10436960D02*
X14245777Y-10417912D01*
X14245777Y-10417912D02*
X14245777Y-10398865D01*
X14245777Y-10398865D02*
X14255301Y-10379817D01*
X14255301Y-10379817D02*
X14274348Y-10370293D01*
X14274348Y-10370293D02*
X14321967Y-10370293D01*
X14321967Y-10370293D02*
X14341015Y-10360770D01*
X14436253Y-10313150D02*
X14436253Y-10513150D01*
X14436253Y-10322674D02*
X14455301Y-10313150D01*
X14455301Y-10313150D02*
X14493396Y-10313150D01*
X14493396Y-10313150D02*
X14512443Y-10322674D01*
X14512443Y-10322674D02*
X14521967Y-10332198D01*
X14521967Y-10332198D02*
X14531491Y-10351246D01*
X14531491Y-10351246D02*
X14531491Y-10408389D01*
X14531491Y-10408389D02*
X14521967Y-10427436D01*
X14521967Y-10427436D02*
X14512443Y-10436960D01*
X14512443Y-10436960D02*
X14493396Y-10446484D01*
X14493396Y-10446484D02*
X14455301Y-10446484D01*
X14455301Y-10446484D02*
X14436253Y-10436960D01*
X14617205Y-10427436D02*
X14626729Y-10436960D01*
X14626729Y-10436960D02*
X14617205Y-10446484D01*
X14617205Y-10446484D02*
X14607682Y-10436960D01*
X14607682Y-10436960D02*
X14617205Y-10427436D01*
X14617205Y-10427436D02*
X14617205Y-10446484D01*
X14617205Y-10322674D02*
X14626729Y-10332198D01*
X14626729Y-10332198D02*
X14617205Y-10341722D01*
X14617205Y-10341722D02*
X14607682Y-10332198D01*
X14607682Y-10332198D02*
X14617205Y-10322674D01*
X14617205Y-10322674D02*
X14617205Y-10341722D01*
D10*
X12945000Y-10755000D02*
X12985000Y-10795000D01*
X12985000Y-10755000D02*
X12945000Y-10795000D01*
D11*
X13283872Y-10666484D02*
X13302920Y-10666484D01*
X13302920Y-10666484D02*
X13321967Y-10676008D01*
X13321967Y-10676008D02*
X13331491Y-10685531D01*
X13331491Y-10685531D02*
X13341015Y-10704579D01*
X13341015Y-10704579D02*
X13350539Y-10742674D01*
X13350539Y-10742674D02*
X13350539Y-10790293D01*
X13350539Y-10790293D02*
X13341015Y-10828389D01*
X13341015Y-10828389D02*
X13331491Y-10847436D01*
X13331491Y-10847436D02*
X13321967Y-10856960D01*
X13321967Y-10856960D02*
X13302920Y-10866484D01*
X13302920Y-10866484D02*
X13283872Y-10866484D01*
X13283872Y-10866484D02*
X13264824Y-10856960D01*
X13264824Y-10856960D02*
X13255301Y-10847436D01*
X13255301Y-10847436D02*
X13245777Y-10828389D01*
X13245777Y-10828389D02*
X13236253Y-10790293D01*
X13236253Y-10790293D02*
X13236253Y-10742674D01*
X13236253Y-10742674D02*
X13245777Y-10704579D01*
X13245777Y-10704579D02*
X13255301Y-10685531D01*
X13255301Y-10685531D02*
X13264824Y-10676008D01*
X13264824Y-10676008D02*
X13283872Y-10666484D01*
X13436253Y-10847436D02*
X13445777Y-10856960D01*
X13445777Y-10856960D02*
X13436253Y-10866484D01*
X13436253Y-10866484D02*
X13426729Y-10856960D01*
X13426729Y-10856960D02*
X13436253Y-10847436D01*
X13436253Y-10847436D02*
X13436253Y-10866484D01*
X13617205Y-10733150D02*
X13617205Y-10866484D01*
X13569586Y-10656960D02*
X13521967Y-10799817D01*
X13521967Y-10799817D02*
X13645777Y-10799817D01*
X13760062Y-10666484D02*
X13779110Y-10666484D01*
X13779110Y-10666484D02*
X13798158Y-10676008D01*
X13798158Y-10676008D02*
X13807682Y-10685531D01*
X13807682Y-10685531D02*
X13817205Y-10704579D01*
X13817205Y-10704579D02*
X13826729Y-10742674D01*
X13826729Y-10742674D02*
X13826729Y-10790293D01*
X13826729Y-10790293D02*
X13817205Y-10828389D01*
X13817205Y-10828389D02*
X13807682Y-10847436D01*
X13807682Y-10847436D02*
X13798158Y-10856960D01*
X13798158Y-10856960D02*
X13779110Y-10866484D01*
X13779110Y-10866484D02*
X13760062Y-10866484D01*
X13760062Y-10866484D02*
X13741015Y-10856960D01*
X13741015Y-10856960D02*
X13731491Y-10847436D01*
X13731491Y-10847436D02*
X13721967Y-10828389D01*
X13721967Y-10828389D02*
X13712443Y-10790293D01*
X13712443Y-10790293D02*
X13712443Y-10742674D01*
X13712443Y-10742674D02*
X13721967Y-10704579D01*
X13721967Y-10704579D02*
X13731491Y-10685531D01*
X13731491Y-10685531D02*
X13741015Y-10676008D01*
X13741015Y-10676008D02*
X13760062Y-10666484D01*
X13950539Y-10666484D02*
X13969586Y-10666484D01*
X13969586Y-10666484D02*
X13988634Y-10676008D01*
X13988634Y-10676008D02*
X13998158Y-10685531D01*
X13998158Y-10685531D02*
X14007682Y-10704579D01*
X14007682Y-10704579D02*
X14017205Y-10742674D01*
X14017205Y-10742674D02*
X14017205Y-10790293D01*
X14017205Y-10790293D02*
X14007682Y-10828389D01*
X14007682Y-10828389D02*
X13998158Y-10847436D01*
X13998158Y-10847436D02*
X13988634Y-10856960D01*
X13988634Y-10856960D02*
X13969586Y-10866484D01*
X13969586Y-10866484D02*
X13950539Y-10866484D01*
X13950539Y-10866484D02*
X13931491Y-10856960D01*
X13931491Y-10856960D02*
X13921967Y-10847436D01*
X13921967Y-10847436D02*
X13912443Y-10828389D01*
X13912443Y-10828389D02*
X13902920Y-10790293D01*
X13902920Y-10790293D02*
X13902920Y-10742674D01*
X13902920Y-10742674D02*
X13912443Y-10704579D01*
X13912443Y-10704579D02*
X13921967Y-10685531D01*
X13921967Y-10685531D02*
X13931491Y-10676008D01*
X13931491Y-10676008D02*
X13950539Y-10666484D01*
X14102920Y-10866484D02*
X14102920Y-10733150D01*
X14102920Y-10752198D02*
X14112443Y-10742674D01*
X14112443Y-10742674D02*
X14131491Y-10733150D01*
X14131491Y-10733150D02*
X14160063Y-10733150D01*
X14160063Y-10733150D02*
X14179110Y-10742674D01*
X14179110Y-10742674D02*
X14188634Y-10761722D01*
X14188634Y-10761722D02*
X14188634Y-10866484D01*
X14188634Y-10761722D02*
X14198158Y-10742674D01*
X14198158Y-10742674D02*
X14217205Y-10733150D01*
X14217205Y-10733150D02*
X14245777Y-10733150D01*
X14245777Y-10733150D02*
X14264824Y-10742674D01*
X14264824Y-10742674D02*
X14274348Y-10761722D01*
X14274348Y-10761722D02*
X14274348Y-10866484D01*
X14369586Y-10866484D02*
X14369586Y-10733150D01*
X14369586Y-10752198D02*
X14379110Y-10742674D01*
X14379110Y-10742674D02*
X14398158Y-10733150D01*
X14398158Y-10733150D02*
X14426729Y-10733150D01*
X14426729Y-10733150D02*
X14445777Y-10742674D01*
X14445777Y-10742674D02*
X14455301Y-10761722D01*
X14455301Y-10761722D02*
X14455301Y-10866484D01*
X14455301Y-10761722D02*
X14464824Y-10742674D01*
X14464824Y-10742674D02*
X14483872Y-10733150D01*
X14483872Y-10733150D02*
X14512443Y-10733150D01*
X14512443Y-10733150D02*
X14531491Y-10742674D01*
X14531491Y-10742674D02*
X14541015Y-10761722D01*
X14541015Y-10761722D02*
X14541015Y-10866484D01*
X14931491Y-10656960D02*
X14760063Y-10914103D01*
X15188634Y-10666484D02*
X15207682Y-10666484D01*
X15207682Y-10666484D02*
X15226729Y-10676008D01*
X15226729Y-10676008D02*
X15236253Y-10685531D01*
X15236253Y-10685531D02*
X15245777Y-10704579D01*
X15245777Y-10704579D02*
X15255301Y-10742674D01*
X15255301Y-10742674D02*
X15255301Y-10790293D01*
X15255301Y-10790293D02*
X15245777Y-10828389D01*
X15245777Y-10828389D02*
X15236253Y-10847436D01*
X15236253Y-10847436D02*
X15226729Y-10856960D01*
X15226729Y-10856960D02*
X15207682Y-10866484D01*
X15207682Y-10866484D02*
X15188634Y-10866484D01*
X15188634Y-10866484D02*
X15169586Y-10856960D01*
X15169586Y-10856960D02*
X15160063Y-10847436D01*
X15160063Y-10847436D02*
X15150539Y-10828389D01*
X15150539Y-10828389D02*
X15141015Y-10790293D01*
X15141015Y-10790293D02*
X15141015Y-10742674D01*
X15141015Y-10742674D02*
X15150539Y-10704579D01*
X15150539Y-10704579D02*
X15160063Y-10685531D01*
X15160063Y-10685531D02*
X15169586Y-10676008D01*
X15169586Y-10676008D02*
X15188634Y-10666484D01*
X15341015Y-10847436D02*
X15350539Y-10856960D01*
X15350539Y-10856960D02*
X15341015Y-10866484D01*
X15341015Y-10866484D02*
X15331491Y-10856960D01*
X15331491Y-10856960D02*
X15341015Y-10847436D01*
X15341015Y-10847436D02*
X15341015Y-10866484D01*
X15474348Y-10666484D02*
X15493396Y-10666484D01*
X15493396Y-10666484D02*
X15512444Y-10676008D01*
X15512444Y-10676008D02*
X15521967Y-10685531D01*
X15521967Y-10685531D02*
X15531491Y-10704579D01*
X15531491Y-10704579D02*
X15541015Y-10742674D01*
X15541015Y-10742674D02*
X15541015Y-10790293D01*
X15541015Y-10790293D02*
X15531491Y-10828389D01*
X15531491Y-10828389D02*
X15521967Y-10847436D01*
X15521967Y-10847436D02*
X15512444Y-10856960D01*
X15512444Y-10856960D02*
X15493396Y-10866484D01*
X15493396Y-10866484D02*
X15474348Y-10866484D01*
X15474348Y-10866484D02*
X15455301Y-10856960D01*
X15455301Y-10856960D02*
X15445777Y-10847436D01*
X15445777Y-10847436D02*
X15436253Y-10828389D01*
X15436253Y-10828389D02*
X15426729Y-10790293D01*
X15426729Y-10790293D02*
X15426729Y-10742674D01*
X15426729Y-10742674D02*
X15436253Y-10704579D01*
X15436253Y-10704579D02*
X15445777Y-10685531D01*
X15445777Y-10685531D02*
X15455301Y-10676008D01*
X15455301Y-10676008D02*
X15474348Y-10666484D01*
X15731491Y-10866484D02*
X15617206Y-10866484D01*
X15674348Y-10866484D02*
X15674348Y-10666484D01*
X15674348Y-10666484D02*
X15655301Y-10695055D01*
X15655301Y-10695055D02*
X15636253Y-10714103D01*
X15636253Y-10714103D02*
X15617206Y-10723627D01*
X15912444Y-10666484D02*
X15817206Y-10666484D01*
X15817206Y-10666484D02*
X15807682Y-10761722D01*
X15807682Y-10761722D02*
X15817206Y-10752198D01*
X15817206Y-10752198D02*
X15836253Y-10742674D01*
X15836253Y-10742674D02*
X15883872Y-10742674D01*
X15883872Y-10742674D02*
X15902920Y-10752198D01*
X15902920Y-10752198D02*
X15912444Y-10761722D01*
X15912444Y-10761722D02*
X15921967Y-10780770D01*
X15921967Y-10780770D02*
X15921967Y-10828389D01*
X15921967Y-10828389D02*
X15912444Y-10847436D01*
X15912444Y-10847436D02*
X15902920Y-10856960D01*
X15902920Y-10856960D02*
X15883872Y-10866484D01*
X15883872Y-10866484D02*
X15836253Y-10866484D01*
X15836253Y-10866484D02*
X15817206Y-10856960D01*
X15817206Y-10856960D02*
X15807682Y-10847436D01*
X15988634Y-10666484D02*
X16121967Y-10666484D01*
X16121967Y-10666484D02*
X16036253Y-10866484D01*
X16188634Y-10666484D02*
X16188634Y-10704579D01*
X16264825Y-10666484D02*
X16264825Y-10704579D01*
X16560063Y-10942674D02*
X16550539Y-10933150D01*
X16550539Y-10933150D02*
X16531491Y-10904579D01*
X16531491Y-10904579D02*
X16521968Y-10885531D01*
X16521968Y-10885531D02*
X16512444Y-10856960D01*
X16512444Y-10856960D02*
X16502920Y-10809341D01*
X16502920Y-10809341D02*
X16502920Y-10771246D01*
X16502920Y-10771246D02*
X16512444Y-10723627D01*
X16512444Y-10723627D02*
X16521968Y-10695055D01*
X16521968Y-10695055D02*
X16531491Y-10676008D01*
X16531491Y-10676008D02*
X16550539Y-10647436D01*
X16550539Y-10647436D02*
X16560063Y-10637912D01*
X16721968Y-10733150D02*
X16721968Y-10866484D01*
X16674348Y-10656960D02*
X16626729Y-10799817D01*
X16626729Y-10799817D02*
X16750539Y-10799817D01*
X16807682Y-10666484D02*
X16931491Y-10666484D01*
X16931491Y-10666484D02*
X16864825Y-10742674D01*
X16864825Y-10742674D02*
X16893396Y-10742674D01*
X16893396Y-10742674D02*
X16912444Y-10752198D01*
X16912444Y-10752198D02*
X16921968Y-10761722D01*
X16921968Y-10761722D02*
X16931491Y-10780770D01*
X16931491Y-10780770D02*
X16931491Y-10828389D01*
X16931491Y-10828389D02*
X16921968Y-10847436D01*
X16921968Y-10847436D02*
X16912444Y-10856960D01*
X16912444Y-10856960D02*
X16893396Y-10866484D01*
X16893396Y-10866484D02*
X16836253Y-10866484D01*
X16836253Y-10866484D02*
X16817206Y-10856960D01*
X16817206Y-10856960D02*
X16807682Y-10847436D01*
X17169587Y-10866484D02*
X17169587Y-10666484D01*
X17255301Y-10866484D02*
X17255301Y-10761722D01*
X17255301Y-10761722D02*
X17245777Y-10742674D01*
X17245777Y-10742674D02*
X17226730Y-10733150D01*
X17226730Y-10733150D02*
X17198158Y-10733150D01*
X17198158Y-10733150D02*
X17179111Y-10742674D01*
X17179111Y-10742674D02*
X17169587Y-10752198D01*
X17379111Y-10866484D02*
X17360063Y-10856960D01*
X17360063Y-10856960D02*
X17350539Y-10847436D01*
X17350539Y-10847436D02*
X17341015Y-10828389D01*
X17341015Y-10828389D02*
X17341015Y-10771246D01*
X17341015Y-10771246D02*
X17350539Y-10752198D01*
X17350539Y-10752198D02*
X17360063Y-10742674D01*
X17360063Y-10742674D02*
X17379111Y-10733150D01*
X17379111Y-10733150D02*
X17407682Y-10733150D01*
X17407682Y-10733150D02*
X17426730Y-10742674D01*
X17426730Y-10742674D02*
X17436253Y-10752198D01*
X17436253Y-10752198D02*
X17445777Y-10771246D01*
X17445777Y-10771246D02*
X17445777Y-10828389D01*
X17445777Y-10828389D02*
X17436253Y-10847436D01*
X17436253Y-10847436D02*
X17426730Y-10856960D01*
X17426730Y-10856960D02*
X17407682Y-10866484D01*
X17407682Y-10866484D02*
X17379111Y-10866484D01*
X17560063Y-10866484D02*
X17541015Y-10856960D01*
X17541015Y-10856960D02*
X17531492Y-10837912D01*
X17531492Y-10837912D02*
X17531492Y-10666484D01*
X17712444Y-10856960D02*
X17693396Y-10866484D01*
X17693396Y-10866484D02*
X17655301Y-10866484D01*
X17655301Y-10866484D02*
X17636253Y-10856960D01*
X17636253Y-10856960D02*
X17626730Y-10837912D01*
X17626730Y-10837912D02*
X17626730Y-10761722D01*
X17626730Y-10761722D02*
X17636253Y-10742674D01*
X17636253Y-10742674D02*
X17655301Y-10733150D01*
X17655301Y-10733150D02*
X17693396Y-10733150D01*
X17693396Y-10733150D02*
X17712444Y-10742674D01*
X17712444Y-10742674D02*
X17721968Y-10761722D01*
X17721968Y-10761722D02*
X17721968Y-10780770D01*
X17721968Y-10780770D02*
X17626730Y-10799817D01*
X17798158Y-10856960D02*
X17817206Y-10866484D01*
X17817206Y-10866484D02*
X17855301Y-10866484D01*
X17855301Y-10866484D02*
X17874349Y-10856960D01*
X17874349Y-10856960D02*
X17883873Y-10837912D01*
X17883873Y-10837912D02*
X17883873Y-10828389D01*
X17883873Y-10828389D02*
X17874349Y-10809341D01*
X17874349Y-10809341D02*
X17855301Y-10799817D01*
X17855301Y-10799817D02*
X17826730Y-10799817D01*
X17826730Y-10799817D02*
X17807682Y-10790293D01*
X17807682Y-10790293D02*
X17798158Y-10771246D01*
X17798158Y-10771246D02*
X17798158Y-10761722D01*
X17798158Y-10761722D02*
X17807682Y-10742674D01*
X17807682Y-10742674D02*
X17826730Y-10733150D01*
X17826730Y-10733150D02*
X17855301Y-10733150D01*
X17855301Y-10733150D02*
X17874349Y-10742674D01*
X17950539Y-10942674D02*
X17960063Y-10933150D01*
X17960063Y-10933150D02*
X17979111Y-10904579D01*
X17979111Y-10904579D02*
X17988634Y-10885531D01*
X17988634Y-10885531D02*
X17998158Y-10856960D01*
X17998158Y-10856960D02*
X18007682Y-10809341D01*
X18007682Y-10809341D02*
X18007682Y-10771246D01*
X18007682Y-10771246D02*
X17998158Y-10723627D01*
X17998158Y-10723627D02*
X17988634Y-10695055D01*
X17988634Y-10695055D02*
X17979111Y-10676008D01*
X17979111Y-10676008D02*
X17960063Y-10647436D01*
X17960063Y-10647436D02*
X17950539Y-10637912D01*
M02*
