G04 #@! TF.GenerationSoftware,KiCad,Pcbnew,8.0.1-8.0.1-1~ubuntu22.04.1*
G04 #@! TF.CreationDate,2024-05-09T18:35:13+02:00*
G04 #@! TF.ProjectId,FCK_SM-028_V1.3,46434b5f-534d-42d3-9032-385f56312e33,rev?*
G04 #@! TF.SameCoordinates,Original*
G04 #@! TF.FileFunction,Legend,Top*
G04 #@! TF.FilePolarity,Positive*
%FSLAX46Y46*%
G04 Gerber Fmt 4.6, Leading zero omitted, Abs format (unit mm)*
G04 Created by KiCad (PCBNEW 8.0.1-8.0.1-1~ubuntu22.04.1) date 2024-05-09 18:35:13*
%MOMM*%
%LPD*%
G01*
G04 APERTURE LIST*
G04 Aperture macros list*
%AMRoundRect*
0 Rectangle with rounded corners*
0 $1 Rounding radius*
0 $2 $3 $4 $5 $6 $7 $8 $9 X,Y pos of 4 corners*
0 Add a 4 corners polygon primitive as box body*
4,1,4,$2,$3,$4,$5,$6,$7,$8,$9,$2,$3,0*
0 Add four circle primitives for the rounded corners*
1,1,$1+$1,$2,$3*
1,1,$1+$1,$4,$5*
1,1,$1+$1,$6,$7*
1,1,$1+$1,$8,$9*
0 Add four rect primitives between the rounded corners*
20,1,$1+$1,$2,$3,$4,$5,0*
20,1,$1+$1,$4,$5,$6,$7,0*
20,1,$1+$1,$6,$7,$8,$9,0*
20,1,$1+$1,$8,$9,$2,$3,0*%
G04 Aperture macros list end*
%ADD10C,0.175000*%
%ADD11C,0.150000*%
%ADD12C,0.100000*%
%ADD13C,0.120000*%
%ADD14RoundRect,0.250000X-0.337500X-0.475000X0.337500X-0.475000X0.337500X0.475000X-0.337500X0.475000X0*%
%ADD15RoundRect,0.062500X-0.337500X-0.062500X0.337500X-0.062500X0.337500X0.062500X-0.337500X0.062500X0*%
%ADD16RoundRect,0.062500X-0.062500X-0.337500X0.062500X-0.337500X0.062500X0.337500X-0.062500X0.337500X0*%
%ADD17R,5.300000X5.300000*%
%ADD18R,1.000000X2.500000*%
%ADD19RoundRect,0.250000X-0.350000X-0.450000X0.350000X-0.450000X0.350000X0.450000X-0.350000X0.450000X0*%
%ADD20RoundRect,0.250000X0.350000X0.650000X-0.350000X0.650000X-0.350000X-0.650000X0.350000X-0.650000X0*%
%ADD21RoundRect,0.250000X0.337500X0.475000X-0.337500X0.475000X-0.337500X-0.475000X0.337500X-0.475000X0*%
G04 APERTURE END LIST*
D10*
X131067500Y-85250000D02*
G75*
G02*
X130892500Y-85250000I-87500J0D01*
G01*
X130892500Y-85250000D02*
G75*
G02*
X131067500Y-85250000I87500J0D01*
G01*
D11*
X131050000Y-89859580D02*
X131097619Y-89907200D01*
X131097619Y-89907200D02*
X131050000Y-89954819D01*
X131050000Y-89954819D02*
X131002381Y-89907200D01*
X131002381Y-89907200D02*
X131050000Y-89859580D01*
X131050000Y-89859580D02*
X131050000Y-89954819D01*
D12*
X144908235Y-90535713D02*
X144372521Y-90535713D01*
X144372521Y-90535713D02*
X144265378Y-90499998D01*
X144265378Y-90499998D02*
X144193950Y-90428570D01*
X144193950Y-90428570D02*
X144158235Y-90321427D01*
X144158235Y-90321427D02*
X144158235Y-90249998D01*
X144158235Y-91249999D02*
X144158235Y-90892856D01*
X144158235Y-90892856D02*
X144908235Y-90892856D01*
X144229664Y-91928570D02*
X144193950Y-91892856D01*
X144193950Y-91892856D02*
X144158235Y-91785713D01*
X144158235Y-91785713D02*
X144158235Y-91714285D01*
X144158235Y-91714285D02*
X144193950Y-91607142D01*
X144193950Y-91607142D02*
X144265378Y-91535713D01*
X144265378Y-91535713D02*
X144336807Y-91499999D01*
X144336807Y-91499999D02*
X144479664Y-91464285D01*
X144479664Y-91464285D02*
X144586807Y-91464285D01*
X144586807Y-91464285D02*
X144729664Y-91499999D01*
X144729664Y-91499999D02*
X144801092Y-91535713D01*
X144801092Y-91535713D02*
X144872521Y-91607142D01*
X144872521Y-91607142D02*
X144908235Y-91714285D01*
X144908235Y-91714285D02*
X144908235Y-91785713D01*
X144908235Y-91785713D02*
X144872521Y-91892856D01*
X144872521Y-91892856D02*
X144836807Y-91928570D01*
X144908235Y-92464285D02*
X144372521Y-92464285D01*
X144372521Y-92464285D02*
X144265378Y-92428570D01*
X144265378Y-92428570D02*
X144193950Y-92357142D01*
X144193950Y-92357142D02*
X144158235Y-92249999D01*
X144158235Y-92249999D02*
X144158235Y-92178570D01*
X144158235Y-93178571D02*
X144158235Y-92821428D01*
X144158235Y-92821428D02*
X144908235Y-92821428D01*
X144229664Y-93857142D02*
X144193950Y-93821428D01*
X144193950Y-93821428D02*
X144158235Y-93714285D01*
X144158235Y-93714285D02*
X144158235Y-93642857D01*
X144158235Y-93642857D02*
X144193950Y-93535714D01*
X144193950Y-93535714D02*
X144265378Y-93464285D01*
X144265378Y-93464285D02*
X144336807Y-93428571D01*
X144336807Y-93428571D02*
X144479664Y-93392857D01*
X144479664Y-93392857D02*
X144586807Y-93392857D01*
X144586807Y-93392857D02*
X144729664Y-93428571D01*
X144729664Y-93428571D02*
X144801092Y-93464285D01*
X144801092Y-93464285D02*
X144872521Y-93535714D01*
X144872521Y-93535714D02*
X144908235Y-93642857D01*
X144908235Y-93642857D02*
X144908235Y-93714285D01*
X144908235Y-93714285D02*
X144872521Y-93821428D01*
X144872521Y-93821428D02*
X144836807Y-93857142D01*
X144908235Y-94392857D02*
X144372521Y-94392857D01*
X144372521Y-94392857D02*
X144265378Y-94357142D01*
X144265378Y-94357142D02*
X144193950Y-94285714D01*
X144193950Y-94285714D02*
X144158235Y-94178571D01*
X144158235Y-94178571D02*
X144158235Y-94107142D01*
X144158235Y-95107143D02*
X144158235Y-94750000D01*
X144158235Y-94750000D02*
X144908235Y-94750000D01*
X144229664Y-95785714D02*
X144193950Y-95750000D01*
X144193950Y-95750000D02*
X144158235Y-95642857D01*
X144158235Y-95642857D02*
X144158235Y-95571429D01*
X144158235Y-95571429D02*
X144193950Y-95464286D01*
X144193950Y-95464286D02*
X144265378Y-95392857D01*
X144265378Y-95392857D02*
X144336807Y-95357143D01*
X144336807Y-95357143D02*
X144479664Y-95321429D01*
X144479664Y-95321429D02*
X144586807Y-95321429D01*
X144586807Y-95321429D02*
X144729664Y-95357143D01*
X144729664Y-95357143D02*
X144801092Y-95392857D01*
X144801092Y-95392857D02*
X144872521Y-95464286D01*
X144872521Y-95464286D02*
X144908235Y-95571429D01*
X144908235Y-95571429D02*
X144908235Y-95642857D01*
X144908235Y-95642857D02*
X144872521Y-95750000D01*
X144872521Y-95750000D02*
X144836807Y-95785714D01*
X144908235Y-96321429D02*
X144372521Y-96321429D01*
X144372521Y-96321429D02*
X144265378Y-96285714D01*
X144265378Y-96285714D02*
X144193950Y-96214286D01*
X144193950Y-96214286D02*
X144158235Y-96107143D01*
X144158235Y-96107143D02*
X144158235Y-96035714D01*
X144158235Y-97035715D02*
X144158235Y-96678572D01*
X144158235Y-96678572D02*
X144908235Y-96678572D01*
X144229664Y-97714286D02*
X144193950Y-97678572D01*
X144193950Y-97678572D02*
X144158235Y-97571429D01*
X144158235Y-97571429D02*
X144158235Y-97500001D01*
X144158235Y-97500001D02*
X144193950Y-97392858D01*
X144193950Y-97392858D02*
X144265378Y-97321429D01*
X144265378Y-97321429D02*
X144336807Y-97285715D01*
X144336807Y-97285715D02*
X144479664Y-97250001D01*
X144479664Y-97250001D02*
X144586807Y-97250001D01*
X144586807Y-97250001D02*
X144729664Y-97285715D01*
X144729664Y-97285715D02*
X144801092Y-97321429D01*
X144801092Y-97321429D02*
X144872521Y-97392858D01*
X144872521Y-97392858D02*
X144908235Y-97500001D01*
X144908235Y-97500001D02*
X144908235Y-97571429D01*
X144908235Y-97571429D02*
X144872521Y-97678572D01*
X144872521Y-97678572D02*
X144836807Y-97714286D01*
D11*
X139423333Y-91909580D02*
X139375714Y-91957200D01*
X139375714Y-91957200D02*
X139232857Y-92004819D01*
X139232857Y-92004819D02*
X139137619Y-92004819D01*
X139137619Y-92004819D02*
X138994762Y-91957200D01*
X138994762Y-91957200D02*
X138899524Y-91861961D01*
X138899524Y-91861961D02*
X138851905Y-91766723D01*
X138851905Y-91766723D02*
X138804286Y-91576247D01*
X138804286Y-91576247D02*
X138804286Y-91433390D01*
X138804286Y-91433390D02*
X138851905Y-91242914D01*
X138851905Y-91242914D02*
X138899524Y-91147676D01*
X138899524Y-91147676D02*
X138994762Y-91052438D01*
X138994762Y-91052438D02*
X139137619Y-91004819D01*
X139137619Y-91004819D02*
X139232857Y-91004819D01*
X139232857Y-91004819D02*
X139375714Y-91052438D01*
X139375714Y-91052438D02*
X139423333Y-91100057D01*
X140375714Y-92004819D02*
X139804286Y-92004819D01*
X140090000Y-92004819D02*
X140090000Y-91004819D01*
X140090000Y-91004819D02*
X139994762Y-91147676D01*
X139994762Y-91147676D02*
X139899524Y-91242914D01*
X139899524Y-91242914D02*
X139804286Y-91290533D01*
X139423333Y-96699580D02*
X139375714Y-96747200D01*
X139375714Y-96747200D02*
X139232857Y-96794819D01*
X139232857Y-96794819D02*
X139137619Y-96794819D01*
X139137619Y-96794819D02*
X138994762Y-96747200D01*
X138994762Y-96747200D02*
X138899524Y-96651961D01*
X138899524Y-96651961D02*
X138851905Y-96556723D01*
X138851905Y-96556723D02*
X138804286Y-96366247D01*
X138804286Y-96366247D02*
X138804286Y-96223390D01*
X138804286Y-96223390D02*
X138851905Y-96032914D01*
X138851905Y-96032914D02*
X138899524Y-95937676D01*
X138899524Y-95937676D02*
X138994762Y-95842438D01*
X138994762Y-95842438D02*
X139137619Y-95794819D01*
X139137619Y-95794819D02*
X139232857Y-95794819D01*
X139232857Y-95794819D02*
X139375714Y-95842438D01*
X139375714Y-95842438D02*
X139423333Y-95890057D01*
X139804286Y-95890057D02*
X139851905Y-95842438D01*
X139851905Y-95842438D02*
X139947143Y-95794819D01*
X139947143Y-95794819D02*
X140185238Y-95794819D01*
X140185238Y-95794819D02*
X140280476Y-95842438D01*
X140280476Y-95842438D02*
X140328095Y-95890057D01*
X140328095Y-95890057D02*
X140375714Y-95985295D01*
X140375714Y-95985295D02*
X140375714Y-96080533D01*
X140375714Y-96080533D02*
X140328095Y-96223390D01*
X140328095Y-96223390D02*
X139756667Y-96794819D01*
X139756667Y-96794819D02*
X140375714Y-96794819D01*
X137471428Y-97931009D02*
X137614285Y-97978628D01*
X137614285Y-97978628D02*
X137661904Y-98026247D01*
X137661904Y-98026247D02*
X137709523Y-98121485D01*
X137709523Y-98121485D02*
X137709523Y-98264342D01*
X137709523Y-98264342D02*
X137661904Y-98359580D01*
X137661904Y-98359580D02*
X137614285Y-98407200D01*
X137614285Y-98407200D02*
X137519047Y-98454819D01*
X137519047Y-98454819D02*
X137138095Y-98454819D01*
X137138095Y-98454819D02*
X137138095Y-97454819D01*
X137138095Y-97454819D02*
X137471428Y-97454819D01*
X137471428Y-97454819D02*
X137566666Y-97502438D01*
X137566666Y-97502438D02*
X137614285Y-97550057D01*
X137614285Y-97550057D02*
X137661904Y-97645295D01*
X137661904Y-97645295D02*
X137661904Y-97740533D01*
X137661904Y-97740533D02*
X137614285Y-97835771D01*
X137614285Y-97835771D02*
X137566666Y-97883390D01*
X137566666Y-97883390D02*
X137471428Y-97931009D01*
X137471428Y-97931009D02*
X137138095Y-97931009D01*
X141709523Y-98454819D02*
X141376190Y-97978628D01*
X141138095Y-98454819D02*
X141138095Y-97454819D01*
X141138095Y-97454819D02*
X141519047Y-97454819D01*
X141519047Y-97454819D02*
X141614285Y-97502438D01*
X141614285Y-97502438D02*
X141661904Y-97550057D01*
X141661904Y-97550057D02*
X141709523Y-97645295D01*
X141709523Y-97645295D02*
X141709523Y-97788152D01*
X141709523Y-97788152D02*
X141661904Y-97883390D01*
X141661904Y-97883390D02*
X141614285Y-97931009D01*
X141614285Y-97931009D02*
X141519047Y-97978628D01*
X141519047Y-97978628D02*
X141138095Y-97978628D01*
X133609523Y-98454819D02*
X133133333Y-98454819D01*
X133133333Y-98454819D02*
X133133333Y-97454819D01*
X139761904Y-97402438D02*
X139666666Y-97354819D01*
X139666666Y-97354819D02*
X139523809Y-97354819D01*
X139523809Y-97354819D02*
X139380952Y-97402438D01*
X139380952Y-97402438D02*
X139285714Y-97497676D01*
X139285714Y-97497676D02*
X139238095Y-97592914D01*
X139238095Y-97592914D02*
X139190476Y-97783390D01*
X139190476Y-97783390D02*
X139190476Y-97926247D01*
X139190476Y-97926247D02*
X139238095Y-98116723D01*
X139238095Y-98116723D02*
X139285714Y-98211961D01*
X139285714Y-98211961D02*
X139380952Y-98307200D01*
X139380952Y-98307200D02*
X139523809Y-98354819D01*
X139523809Y-98354819D02*
X139619047Y-98354819D01*
X139619047Y-98354819D02*
X139761904Y-98307200D01*
X139761904Y-98307200D02*
X139809523Y-98259580D01*
X139809523Y-98259580D02*
X139809523Y-97926247D01*
X139809523Y-97926247D02*
X139619047Y-97926247D01*
X139453333Y-89864819D02*
X139120000Y-89388628D01*
X138881905Y-89864819D02*
X138881905Y-88864819D01*
X138881905Y-88864819D02*
X139262857Y-88864819D01*
X139262857Y-88864819D02*
X139358095Y-88912438D01*
X139358095Y-88912438D02*
X139405714Y-88960057D01*
X139405714Y-88960057D02*
X139453333Y-89055295D01*
X139453333Y-89055295D02*
X139453333Y-89198152D01*
X139453333Y-89198152D02*
X139405714Y-89293390D01*
X139405714Y-89293390D02*
X139358095Y-89341009D01*
X139358095Y-89341009D02*
X139262857Y-89388628D01*
X139262857Y-89388628D02*
X138881905Y-89388628D01*
X140405714Y-89864819D02*
X139834286Y-89864819D01*
X140120000Y-89864819D02*
X140120000Y-88864819D01*
X140120000Y-88864819D02*
X140024762Y-89007676D01*
X140024762Y-89007676D02*
X139929524Y-89102914D01*
X139929524Y-89102914D02*
X139834286Y-89150533D01*
X130263333Y-87399104D02*
X130739523Y-87399104D01*
X130168095Y-87684819D02*
X130501428Y-86684819D01*
X130501428Y-86684819D02*
X130834761Y-87684819D01*
X131168095Y-87161009D02*
X131501428Y-87161009D01*
X131644285Y-87684819D02*
X131168095Y-87684819D01*
X131168095Y-87684819D02*
X131168095Y-86684819D01*
X131168095Y-86684819D02*
X131644285Y-86684819D01*
X132596666Y-87684819D02*
X132025238Y-87684819D01*
X132310952Y-87684819D02*
X132310952Y-86684819D01*
X132310952Y-86684819D02*
X132215714Y-86827676D01*
X132215714Y-86827676D02*
X132120476Y-86922914D01*
X132120476Y-86922914D02*
X132025238Y-86970533D01*
X135161905Y-98169104D02*
X135638095Y-98169104D01*
X135066667Y-98454819D02*
X135400000Y-97454819D01*
X135400000Y-97454819D02*
X135733333Y-98454819D01*
X139423333Y-94199580D02*
X139375714Y-94247200D01*
X139375714Y-94247200D02*
X139232857Y-94294819D01*
X139232857Y-94294819D02*
X139137619Y-94294819D01*
X139137619Y-94294819D02*
X138994762Y-94247200D01*
X138994762Y-94247200D02*
X138899524Y-94151961D01*
X138899524Y-94151961D02*
X138851905Y-94056723D01*
X138851905Y-94056723D02*
X138804286Y-93866247D01*
X138804286Y-93866247D02*
X138804286Y-93723390D01*
X138804286Y-93723390D02*
X138851905Y-93532914D01*
X138851905Y-93532914D02*
X138899524Y-93437676D01*
X138899524Y-93437676D02*
X138994762Y-93342438D01*
X138994762Y-93342438D02*
X139137619Y-93294819D01*
X139137619Y-93294819D02*
X139232857Y-93294819D01*
X139232857Y-93294819D02*
X139375714Y-93342438D01*
X139375714Y-93342438D02*
X139423333Y-93390057D01*
X139756667Y-93294819D02*
X140375714Y-93294819D01*
X140375714Y-93294819D02*
X140042381Y-93675771D01*
X140042381Y-93675771D02*
X140185238Y-93675771D01*
X140185238Y-93675771D02*
X140280476Y-93723390D01*
X140280476Y-93723390D02*
X140328095Y-93771009D01*
X140328095Y-93771009D02*
X140375714Y-93866247D01*
X140375714Y-93866247D02*
X140375714Y-94104342D01*
X140375714Y-94104342D02*
X140328095Y-94199580D01*
X140328095Y-94199580D02*
X140280476Y-94247200D01*
X140280476Y-94247200D02*
X140185238Y-94294819D01*
X140185238Y-94294819D02*
X139899524Y-94294819D01*
X139899524Y-94294819D02*
X139804286Y-94247200D01*
X139804286Y-94247200D02*
X139756667Y-94199580D01*
D13*
X141828748Y-90915000D02*
X142351252Y-90915000D01*
X141828748Y-92385000D02*
X142351252Y-92385000D01*
X141828748Y-95505000D02*
X142351252Y-95505000D01*
X141828748Y-96975000D02*
X142351252Y-96975000D01*
X130990000Y-96890000D02*
X130990000Y-96415000D01*
X131465000Y-89670000D02*
X130990000Y-89670000D01*
X131465000Y-96890000D02*
X130990000Y-96890000D01*
X137735000Y-89670000D02*
X138210000Y-89670000D01*
X137735000Y-96890000D02*
X138210000Y-96890000D01*
X138210000Y-89670000D02*
X138210000Y-90145000D01*
X138210000Y-96890000D02*
X138210000Y-96415000D01*
X136700000Y-98650000D02*
X138100000Y-98650000D01*
X136700000Y-101550000D02*
X136700000Y-98650000D01*
X138100000Y-98650000D02*
X138100000Y-101550000D01*
X138100000Y-101550000D02*
X136700000Y-101550000D01*
X140700000Y-98600000D02*
X142100000Y-98600000D01*
X140700000Y-101500000D02*
X140700000Y-98600000D01*
X142100000Y-98600000D02*
X142100000Y-101500000D01*
X142100000Y-101500000D02*
X140700000Y-101500000D01*
X132700000Y-98600000D02*
X134100000Y-98600000D01*
X132700000Y-101500000D02*
X132700000Y-98600000D01*
X134100000Y-98600000D02*
X134100000Y-101500000D01*
X134100000Y-101500000D02*
X132700000Y-101500000D01*
X138700000Y-98550000D02*
X140100000Y-98550000D01*
X138700000Y-101450000D02*
X138700000Y-98550000D01*
X140100000Y-98550000D02*
X140100000Y-101450000D01*
X140100000Y-101450000D02*
X138700000Y-101450000D01*
X141892936Y-88675000D02*
X142347064Y-88675000D01*
X141892936Y-90145000D02*
X142347064Y-90145000D01*
X131000000Y-86410000D02*
X134910000Y-86410000D01*
X134910000Y-84090000D02*
X131000000Y-84090000D01*
X134910000Y-86410000D02*
X134910000Y-84090000D01*
X134700000Y-98600000D02*
X136100000Y-98600000D01*
X134700000Y-101500000D02*
X134700000Y-98600000D01*
X136100000Y-98600000D02*
X136100000Y-101500000D01*
X136100000Y-101500000D02*
X134700000Y-101500000D01*
X142351252Y-93205000D02*
X141828748Y-93205000D01*
X142351252Y-94675000D02*
X141828748Y-94675000D01*
%LPC*%
D14*
X141052500Y-91650000D03*
X143127500Y-91650000D03*
X141052500Y-96240000D03*
X143127500Y-96240000D03*
D15*
X131150000Y-90530000D03*
X131150000Y-91030000D03*
X131150000Y-91530000D03*
X131150000Y-92030000D03*
X131150000Y-92530000D03*
X131150000Y-93030000D03*
X131150000Y-93530000D03*
X131150000Y-94030000D03*
X131150000Y-94530000D03*
X131150000Y-95030000D03*
X131150000Y-95530000D03*
X131150000Y-96030000D03*
D16*
X131850000Y-96730000D03*
X132350000Y-96730000D03*
X132850000Y-96730000D03*
X133350000Y-96730000D03*
X133850000Y-96730000D03*
X134350000Y-96730000D03*
X134850000Y-96730000D03*
X135350000Y-96730000D03*
X135850000Y-96730000D03*
X136350000Y-96730000D03*
X136850000Y-96730000D03*
X137350000Y-96730000D03*
D15*
X138050000Y-96030000D03*
X138050000Y-95530000D03*
X138050000Y-95030000D03*
X138050000Y-94530000D03*
X138050000Y-94030000D03*
X138050000Y-93530000D03*
X138050000Y-93030000D03*
X138050000Y-92530000D03*
X138050000Y-92030000D03*
X138050000Y-91530000D03*
X138050000Y-91030000D03*
X138050000Y-90530000D03*
D16*
X137350000Y-89830000D03*
X136850000Y-89830000D03*
X136350000Y-89830000D03*
X135850000Y-89830000D03*
X135350000Y-89830000D03*
X134850000Y-89830000D03*
X134350000Y-89830000D03*
X133850000Y-89830000D03*
X133350000Y-89830000D03*
X132850000Y-89830000D03*
X132350000Y-89830000D03*
X131850000Y-89830000D03*
D17*
X134600000Y-93280000D03*
D18*
X137400000Y-100050000D03*
X141400000Y-100050000D03*
X133400000Y-100050000D03*
X139400000Y-100050000D03*
D19*
X141120000Y-89410000D03*
X143120000Y-89410000D03*
D20*
X134050000Y-85250000D03*
X131150000Y-85250000D03*
D18*
X135400000Y-100050000D03*
D21*
X143127500Y-93940000D03*
X141052500Y-93940000D03*
%LPD*%
M02*
