G04 #@! TF.GenerationSoftware,KiCad,Pcbnew,8.0.1-8.0.1-1~ubuntu22.04.1*
G04 #@! TF.CreationDate,2024-05-09T18:35:13+02:00*
G04 #@! TF.ProjectId,FCK_SM-028_V1.3,46434b5f-534d-42d3-9032-385f56312e33,rev?*
G04 #@! TF.SameCoordinates,Original*
G04 #@! TF.FileFunction,Copper,L1,Top*
G04 #@! TF.FilePolarity,Positive*
%FSLAX46Y46*%
G04 Gerber Fmt 4.6, Leading zero omitted, Abs format (unit mm)*
G04 Created by KiCad (PCBNEW 8.0.1-8.0.1-1~ubuntu22.04.1) date 2024-05-09 18:35:13*
%MOMM*%
%LPD*%
G01*
G04 APERTURE LIST*
G04 Aperture macros list*
%AMRoundRect*
0 Rectangle with rounded corners*
0 $1 Rounding radius*
0 $2 $3 $4 $5 $6 $7 $8 $9 X,Y pos of 4 corners*
0 Add a 4 corners polygon primitive as box body*
4,1,4,$2,$3,$4,$5,$6,$7,$8,$9,$2,$3,0*
0 Add four circle primitives for the rounded corners*
1,1,$1+$1,$2,$3*
1,1,$1+$1,$4,$5*
1,1,$1+$1,$6,$7*
1,1,$1+$1,$8,$9*
0 Add four rect primitives between the rounded corners*
20,1,$1+$1,$2,$3,$4,$5,0*
20,1,$1+$1,$4,$5,$6,$7,0*
20,1,$1+$1,$6,$7,$8,$9,0*
20,1,$1+$1,$8,$9,$2,$3,0*%
G04 Aperture macros list end*
G04 #@! TA.AperFunction,SMDPad,CuDef*
%ADD10RoundRect,0.250000X-0.337500X-0.475000X0.337500X-0.475000X0.337500X0.475000X-0.337500X0.475000X0*%
G04 #@! TD*
G04 #@! TA.AperFunction,SMDPad,CuDef*
%ADD11RoundRect,0.062500X-0.337500X-0.062500X0.337500X-0.062500X0.337500X0.062500X-0.337500X0.062500X0*%
G04 #@! TD*
G04 #@! TA.AperFunction,SMDPad,CuDef*
%ADD12RoundRect,0.062500X-0.062500X-0.337500X0.062500X-0.337500X0.062500X0.337500X-0.062500X0.337500X0*%
G04 #@! TD*
G04 #@! TA.AperFunction,SMDPad,CuDef*
%ADD13R,5.300000X5.300000*%
G04 #@! TD*
G04 #@! TA.AperFunction,SMDPad,CuDef*
%ADD14R,1.000000X2.500000*%
G04 #@! TD*
G04 #@! TA.AperFunction,SMDPad,CuDef*
%ADD15RoundRect,0.250000X-0.350000X-0.450000X0.350000X-0.450000X0.350000X0.450000X-0.350000X0.450000X0*%
G04 #@! TD*
G04 #@! TA.AperFunction,SMDPad,CuDef*
%ADD16RoundRect,0.250000X0.350000X0.650000X-0.350000X0.650000X-0.350000X-0.650000X0.350000X-0.650000X0*%
G04 #@! TD*
G04 #@! TA.AperFunction,SMDPad,CuDef*
%ADD17RoundRect,0.250000X0.337500X0.475000X-0.337500X0.475000X-0.337500X-0.475000X0.337500X-0.475000X0*%
G04 #@! TD*
G04 #@! TA.AperFunction,ViaPad*
%ADD18C,0.250000*%
G04 #@! TD*
G04 #@! TA.AperFunction,ViaPad*
%ADD19C,0.800000*%
G04 #@! TD*
G04 #@! TA.AperFunction,Conductor*
%ADD20C,0.200000*%
G04 #@! TD*
G04 #@! TA.AperFunction,Conductor*
%ADD21C,0.250000*%
G04 #@! TD*
G04 #@! TA.AperFunction,Conductor*
%ADD22C,0.500000*%
G04 #@! TD*
G04 APERTURE END LIST*
D10*
X141052500Y-91650000D03*
X143127500Y-91650000D03*
X141052500Y-96240000D03*
X143127500Y-96240000D03*
D11*
X131150000Y-90530000D03*
X131150000Y-91030000D03*
X131150000Y-91530000D03*
X131150000Y-92030000D03*
X131150000Y-92530000D03*
X131150000Y-93030000D03*
X131150000Y-93530000D03*
X131150000Y-94030000D03*
X131150000Y-94530000D03*
X131150000Y-95030000D03*
X131150000Y-95530000D03*
X131150000Y-96030000D03*
D12*
X131850000Y-96730000D03*
X132350000Y-96730000D03*
X132850000Y-96730000D03*
X133350000Y-96730000D03*
X133850000Y-96730000D03*
X134350000Y-96730000D03*
X134850000Y-96730000D03*
X135350000Y-96730000D03*
X135850000Y-96730000D03*
X136350000Y-96730000D03*
X136850000Y-96730000D03*
X137350000Y-96730000D03*
D11*
X138050000Y-96030000D03*
X138050000Y-95530000D03*
X138050000Y-95030000D03*
X138050000Y-94530000D03*
X138050000Y-94030000D03*
X138050000Y-93530000D03*
X138050000Y-93030000D03*
X138050000Y-92530000D03*
X138050000Y-92030000D03*
X138050000Y-91530000D03*
X138050000Y-91030000D03*
X138050000Y-90530000D03*
D12*
X137350000Y-89830000D03*
X136850000Y-89830000D03*
X136350000Y-89830000D03*
X135850000Y-89830000D03*
X135350000Y-89830000D03*
X134850000Y-89830000D03*
X134350000Y-89830000D03*
X133850000Y-89830000D03*
X133350000Y-89830000D03*
X132850000Y-89830000D03*
X132350000Y-89830000D03*
X131850000Y-89830000D03*
D13*
X134600000Y-93280000D03*
D14*
X137400000Y-100050000D03*
X141400000Y-100050000D03*
X133400000Y-100050000D03*
X139400000Y-100050000D03*
D15*
X141120000Y-89410000D03*
X143120000Y-89410000D03*
D16*
X134050000Y-85250000D03*
X131150000Y-85250000D03*
D14*
X135400000Y-100050000D03*
D17*
X143127500Y-93940000D03*
X141052500Y-93940000D03*
D18*
X134900000Y-97100000D03*
X135500000Y-95280000D03*
X134600000Y-94280000D03*
X132700000Y-92380000D03*
X133600000Y-92380000D03*
X135500000Y-92380000D03*
X137900000Y-97810000D03*
X133600000Y-94280000D03*
X134600000Y-95280000D03*
X132700000Y-94280000D03*
X136400000Y-92380000D03*
X135500000Y-93280000D03*
X136400000Y-93280000D03*
X133600000Y-95280000D03*
X133600000Y-91380000D03*
X134600000Y-92380000D03*
X132700000Y-93280000D03*
X133600000Y-93280000D03*
X134600000Y-91380000D03*
X135500000Y-91380000D03*
X135500000Y-94280000D03*
X136400000Y-94280000D03*
D19*
X141052500Y-91650000D03*
D18*
X134600000Y-93280000D03*
X134600000Y-93280000D03*
D19*
X141052500Y-93940000D03*
X141052500Y-96240000D03*
D18*
X134600000Y-93280000D03*
X130700000Y-94530000D03*
D19*
X141120000Y-89410000D03*
D18*
X130250000Y-92030000D03*
D19*
X143120000Y-89410000D03*
X134350000Y-88490000D03*
X132840000Y-88490000D03*
X138020000Y-88490000D03*
X143127500Y-93940000D03*
X143127500Y-96240000D03*
X143910000Y-84490000D03*
X143940000Y-86680000D03*
D18*
X138640000Y-97240000D03*
X139040000Y-95660000D03*
X139160000Y-93500000D03*
X139820000Y-96760000D03*
D20*
X141120000Y-89410000D02*
X141120000Y-89642500D01*
X141120000Y-89642500D02*
X143127500Y-91650000D01*
X137350000Y-89160000D02*
X138020000Y-88490000D01*
X132850000Y-89830000D02*
X132850000Y-88500000D01*
X131150000Y-90530000D02*
X131150000Y-89150000D01*
X131810000Y-88490000D02*
X132840000Y-88490000D01*
X132850000Y-88500000D02*
X132840000Y-88490000D01*
X134350000Y-89830000D02*
X134350000Y-88490000D01*
X137350000Y-89830000D02*
X137350000Y-89160000D01*
X130250000Y-92030000D02*
X131150000Y-92030000D01*
X131150000Y-89150000D02*
X131810000Y-88490000D01*
X131150000Y-91530000D02*
X131150000Y-92030000D01*
X136690000Y-84490000D02*
X135350000Y-85830000D01*
X143910000Y-84490000D02*
X136690000Y-84490000D01*
X135350000Y-85830000D02*
X135350000Y-89830000D01*
X137434994Y-86680000D02*
X135850000Y-88264994D01*
X135850000Y-88264994D02*
X135850000Y-89830000D01*
X143940000Y-86680000D02*
X137434994Y-86680000D01*
D21*
X136850000Y-96730000D02*
X136850000Y-97350000D01*
X136850000Y-97350000D02*
X137300000Y-97800000D01*
X137300000Y-97800000D02*
X137890000Y-97800000D01*
X132350000Y-96730000D02*
X132350000Y-99000000D01*
X132350000Y-99000000D02*
X133400000Y-100050000D01*
X133390000Y-98430000D02*
X135090000Y-98430000D01*
X132850000Y-96730000D02*
X132850000Y-97890000D01*
X132850000Y-97890000D02*
X133390000Y-98430000D01*
X135090000Y-98430000D02*
X135400000Y-98740000D01*
X135400000Y-98740000D02*
X135400000Y-100050000D01*
D20*
X139820000Y-98260000D02*
X139110489Y-97550489D01*
X139689511Y-95885495D02*
X139689511Y-88689511D01*
X137860741Y-87660000D02*
X136850000Y-88670741D01*
X141400000Y-100050000D02*
X141400000Y-98260000D01*
X138660000Y-87660000D02*
X137860741Y-87660000D01*
X136850000Y-88670741D02*
X136850000Y-89830000D01*
X139110489Y-96464517D02*
X139689511Y-95885495D01*
X141400000Y-98260000D02*
X139820000Y-98260000D01*
X139689511Y-88689511D02*
X138660000Y-87660000D01*
X139110489Y-97550489D02*
X139110489Y-96464517D01*
D21*
X133350000Y-97730000D02*
X133350000Y-96730000D01*
X137400000Y-100050000D02*
X137400000Y-99300000D01*
X137400000Y-99300000D02*
X136080480Y-97980480D01*
X136080480Y-97980480D02*
X133600480Y-97980480D01*
X133600480Y-97980480D02*
X133350000Y-97730000D01*
D20*
X137350000Y-97240000D02*
X138640000Y-97240000D01*
X137350000Y-96730000D02*
X137350000Y-97240000D01*
D21*
X139400000Y-100050000D02*
X139400000Y-99300000D01*
X139400000Y-99300000D02*
X138575489Y-98475489D01*
X138575489Y-98475489D02*
X137305489Y-98475489D01*
X136365471Y-97530960D02*
X136365471Y-97535471D01*
X134203632Y-97530960D02*
X136365471Y-97530960D01*
X136365471Y-97535471D02*
X137305489Y-98475489D01*
X133850000Y-97177328D02*
X134203632Y-97530960D01*
X139400000Y-99180000D02*
X139400000Y-100050000D01*
X133850000Y-96730000D02*
X133850000Y-97177328D01*
D20*
X138050000Y-94530000D02*
X138549022Y-94530000D01*
X139040000Y-95020978D02*
X138549022Y-94530000D01*
X139040000Y-95660000D02*
X139040000Y-95020978D01*
X138461973Y-90530000D02*
X139160000Y-91228027D01*
X138050000Y-90530000D02*
X138461973Y-90530000D01*
X139160000Y-91228027D02*
X139160000Y-93500000D01*
X137580000Y-87100000D02*
X138990000Y-87100000D01*
X138990000Y-87100000D02*
X140165480Y-88275480D01*
X136350000Y-88330000D02*
X137580000Y-87100000D01*
X136350000Y-89830000D02*
X136350000Y-88330000D01*
X140165480Y-96414520D02*
X139820000Y-96760000D01*
X140165480Y-88275480D02*
X140165480Y-96414520D01*
D22*
X130300000Y-90850000D02*
X130490000Y-91040000D01*
X131150000Y-87720000D02*
X130300000Y-88570000D01*
D20*
X130510000Y-91020000D02*
X130490000Y-91040000D01*
X131150000Y-91030000D02*
X131160000Y-91020000D01*
D22*
X130300000Y-88570000D02*
X130300000Y-90850000D01*
X131150000Y-85250000D02*
X131150000Y-87720000D01*
D20*
X131160000Y-91020000D02*
X130510000Y-91020000D01*
M02*
