M48
; DRILL file {KiCad 8.0.1-8.0.1-1~ubuntu22.04.1} date 2024-05-09T18:35:26+0200
; FORMAT={-:-/ absolute / metric / decimal}
; #@! TF.CreationDate,2024-05-09T18:35:26+02:00
; #@! TF.GenerationSoftware,Kicad,Pcbnew,8.0.1-8.0.1-1~ubuntu22.04.1
; #@! TF.FileFunction,Plated,1,2,PTH
FMAT,2
METRIC
; #@! TA.AperFunction,Plated,PTH,ViaDrill
T1C0.400
%
G90
G05
T1
X130.25Y-92.03
X130.7Y-94.53
X132.7Y-92.38
X132.7Y-93.28
X132.7Y-94.28
X132.84Y-88.49
X133.6Y-91.38
X133.6Y-92.38
X133.6Y-93.28
X133.6Y-94.28
X133.6Y-95.28
X134.35Y-88.49
X134.6Y-91.38
X134.6Y-92.38
X134.6Y-93.28
X134.6Y-93.28
X134.6Y-93.28
X134.6Y-94.28
X134.6Y-95.28
X134.9Y-97.1
X135.5Y-91.38
X135.5Y-92.38
X135.5Y-93.28
X135.5Y-94.28
X135.5Y-95.28
X136.4Y-92.38
X136.4Y-93.28
X136.4Y-94.28
X137.9Y-97.81
X138.02Y-88.49
X138.64Y-97.24
X139.04Y-95.66
X139.16Y-93.5
X139.82Y-96.76
X141.052Y-91.65
X141.052Y-93.94
X141.052Y-96.24
X141.12Y-89.41
X143.12Y-89.41
X143.127Y-93.94
X143.127Y-96.24
X143.91Y-84.49
X143.94Y-86.68
M30
