G04 #@! TF.GenerationSoftware,KiCad,Pcbnew,8.0.1-8.0.1-1~ubuntu22.04.1*
G04 #@! TF.CreationDate,2024-05-09T18:35:13+02:00*
G04 #@! TF.ProjectId,FCK_SM-028_V1.3,46434b5f-534d-42d3-9032-385f56312e33,rev?*
G04 #@! TF.SameCoordinates,Original*
G04 #@! TF.FileFunction,Legend,Bot*
G04 #@! TF.FilePolarity,Positive*
%FSLAX46Y46*%
G04 Gerber Fmt 4.6, Leading zero omitted, Abs format (unit mm)*
G04 Created by KiCad (PCBNEW 8.0.1-8.0.1-1~ubuntu22.04.1) date 2024-05-09 18:35:13*
%MOMM*%
%LPD*%
G01*
G04 APERTURE LIST*
%ADD10C,0.150000*%
%ADD11C,0.120000*%
%ADD12R,1.000000X2.500000*%
%ADD13C,1.000000*%
G04 APERTURE END LIST*
D10*
X131116093Y-84190112D02*
X131116093Y-83856779D01*
X131639903Y-83856779D02*
X130639903Y-83856779D01*
X130639903Y-83856779D02*
X130639903Y-84332969D01*
X131544664Y-85285350D02*
X131592284Y-85237731D01*
X131592284Y-85237731D02*
X131639903Y-85094874D01*
X131639903Y-85094874D02*
X131639903Y-84999636D01*
X131639903Y-84999636D02*
X131592284Y-84856779D01*
X131592284Y-84856779D02*
X131497045Y-84761541D01*
X131497045Y-84761541D02*
X131401807Y-84713922D01*
X131401807Y-84713922D02*
X131211331Y-84666303D01*
X131211331Y-84666303D02*
X131068474Y-84666303D01*
X131068474Y-84666303D02*
X130877998Y-84713922D01*
X130877998Y-84713922D02*
X130782760Y-84761541D01*
X130782760Y-84761541D02*
X130687522Y-84856779D01*
X130687522Y-84856779D02*
X130639903Y-84999636D01*
X130639903Y-84999636D02*
X130639903Y-85094874D01*
X130639903Y-85094874D02*
X130687522Y-85237731D01*
X130687522Y-85237731D02*
X130735141Y-85285350D01*
X131639903Y-85713922D02*
X130639903Y-85713922D01*
X131639903Y-86285350D02*
X131068474Y-85856779D01*
X130639903Y-86285350D02*
X131211331Y-85713922D01*
X131735141Y-86475827D02*
X131735141Y-87237731D01*
X131592284Y-87428208D02*
X131639903Y-87571065D01*
X131639903Y-87571065D02*
X131639903Y-87809160D01*
X131639903Y-87809160D02*
X131592284Y-87904398D01*
X131592284Y-87904398D02*
X131544664Y-87952017D01*
X131544664Y-87952017D02*
X131449426Y-87999636D01*
X131449426Y-87999636D02*
X131354188Y-87999636D01*
X131354188Y-87999636D02*
X131258950Y-87952017D01*
X131258950Y-87952017D02*
X131211331Y-87904398D01*
X131211331Y-87904398D02*
X131163712Y-87809160D01*
X131163712Y-87809160D02*
X131116093Y-87618684D01*
X131116093Y-87618684D02*
X131068474Y-87523446D01*
X131068474Y-87523446D02*
X131020855Y-87475827D01*
X131020855Y-87475827D02*
X130925617Y-87428208D01*
X130925617Y-87428208D02*
X130830379Y-87428208D01*
X130830379Y-87428208D02*
X130735141Y-87475827D01*
X130735141Y-87475827D02*
X130687522Y-87523446D01*
X130687522Y-87523446D02*
X130639903Y-87618684D01*
X130639903Y-87618684D02*
X130639903Y-87856779D01*
X130639903Y-87856779D02*
X130687522Y-87999636D01*
X131639903Y-88428208D02*
X130639903Y-88428208D01*
X130639903Y-88428208D02*
X131354188Y-88761541D01*
X131354188Y-88761541D02*
X130639903Y-89094874D01*
X130639903Y-89094874D02*
X131639903Y-89094874D01*
X131258950Y-89571065D02*
X131258950Y-90332970D01*
X130639903Y-90999636D02*
X130639903Y-91094874D01*
X130639903Y-91094874D02*
X130687522Y-91190112D01*
X130687522Y-91190112D02*
X130735141Y-91237731D01*
X130735141Y-91237731D02*
X130830379Y-91285350D01*
X130830379Y-91285350D02*
X131020855Y-91332969D01*
X131020855Y-91332969D02*
X131258950Y-91332969D01*
X131258950Y-91332969D02*
X131449426Y-91285350D01*
X131449426Y-91285350D02*
X131544664Y-91237731D01*
X131544664Y-91237731D02*
X131592284Y-91190112D01*
X131592284Y-91190112D02*
X131639903Y-91094874D01*
X131639903Y-91094874D02*
X131639903Y-90999636D01*
X131639903Y-90999636D02*
X131592284Y-90904398D01*
X131592284Y-90904398D02*
X131544664Y-90856779D01*
X131544664Y-90856779D02*
X131449426Y-90809160D01*
X131449426Y-90809160D02*
X131258950Y-90761541D01*
X131258950Y-90761541D02*
X131020855Y-90761541D01*
X131020855Y-90761541D02*
X130830379Y-90809160D01*
X130830379Y-90809160D02*
X130735141Y-90856779D01*
X130735141Y-90856779D02*
X130687522Y-90904398D01*
X130687522Y-90904398D02*
X130639903Y-90999636D01*
X130735141Y-91713922D02*
X130687522Y-91761541D01*
X130687522Y-91761541D02*
X130639903Y-91856779D01*
X130639903Y-91856779D02*
X130639903Y-92094874D01*
X130639903Y-92094874D02*
X130687522Y-92190112D01*
X130687522Y-92190112D02*
X130735141Y-92237731D01*
X130735141Y-92237731D02*
X130830379Y-92285350D01*
X130830379Y-92285350D02*
X130925617Y-92285350D01*
X130925617Y-92285350D02*
X131068474Y-92237731D01*
X131068474Y-92237731D02*
X131639903Y-91666303D01*
X131639903Y-91666303D02*
X131639903Y-92285350D01*
X131068474Y-92856779D02*
X131020855Y-92761541D01*
X131020855Y-92761541D02*
X130973236Y-92713922D01*
X130973236Y-92713922D02*
X130877998Y-92666303D01*
X130877998Y-92666303D02*
X130830379Y-92666303D01*
X130830379Y-92666303D02*
X130735141Y-92713922D01*
X130735141Y-92713922D02*
X130687522Y-92761541D01*
X130687522Y-92761541D02*
X130639903Y-92856779D01*
X130639903Y-92856779D02*
X130639903Y-93047255D01*
X130639903Y-93047255D02*
X130687522Y-93142493D01*
X130687522Y-93142493D02*
X130735141Y-93190112D01*
X130735141Y-93190112D02*
X130830379Y-93237731D01*
X130830379Y-93237731D02*
X130877998Y-93237731D01*
X130877998Y-93237731D02*
X130973236Y-93190112D01*
X130973236Y-93190112D02*
X131020855Y-93142493D01*
X131020855Y-93142493D02*
X131068474Y-93047255D01*
X131068474Y-93047255D02*
X131068474Y-92856779D01*
X131068474Y-92856779D02*
X131116093Y-92761541D01*
X131116093Y-92761541D02*
X131163712Y-92713922D01*
X131163712Y-92713922D02*
X131258950Y-92666303D01*
X131258950Y-92666303D02*
X131449426Y-92666303D01*
X131449426Y-92666303D02*
X131544664Y-92713922D01*
X131544664Y-92713922D02*
X131592284Y-92761541D01*
X131592284Y-92761541D02*
X131639903Y-92856779D01*
X131639903Y-92856779D02*
X131639903Y-93047255D01*
X131639903Y-93047255D02*
X131592284Y-93142493D01*
X131592284Y-93142493D02*
X131544664Y-93190112D01*
X131544664Y-93190112D02*
X131449426Y-93237731D01*
X131449426Y-93237731D02*
X131258950Y-93237731D01*
X131258950Y-93237731D02*
X131163712Y-93190112D01*
X131163712Y-93190112D02*
X131116093Y-93142493D01*
X131116093Y-93142493D02*
X131068474Y-93047255D01*
X131735141Y-93428208D02*
X131735141Y-94190112D01*
X130639903Y-94285351D02*
X131639903Y-94618684D01*
X131639903Y-94618684D02*
X130639903Y-94952017D01*
X131639903Y-95809160D02*
X131639903Y-95237732D01*
X131639903Y-95523446D02*
X130639903Y-95523446D01*
X130639903Y-95523446D02*
X130782760Y-95428208D01*
X130782760Y-95428208D02*
X130877998Y-95332970D01*
X130877998Y-95332970D02*
X130925617Y-95237732D01*
X131544664Y-96237732D02*
X131592284Y-96285351D01*
X131592284Y-96285351D02*
X131639903Y-96237732D01*
X131639903Y-96237732D02*
X131592284Y-96190113D01*
X131592284Y-96190113D02*
X131544664Y-96237732D01*
X131544664Y-96237732D02*
X131639903Y-96237732D01*
X130639903Y-96618684D02*
X130639903Y-97237731D01*
X130639903Y-97237731D02*
X131020855Y-96904398D01*
X131020855Y-96904398D02*
X131020855Y-97047255D01*
X131020855Y-97047255D02*
X131068474Y-97142493D01*
X131068474Y-97142493D02*
X131116093Y-97190112D01*
X131116093Y-97190112D02*
X131211331Y-97237731D01*
X131211331Y-97237731D02*
X131449426Y-97237731D01*
X131449426Y-97237731D02*
X131544664Y-97190112D01*
X131544664Y-97190112D02*
X131592284Y-97142493D01*
X131592284Y-97142493D02*
X131639903Y-97047255D01*
X131639903Y-97047255D02*
X131639903Y-96761541D01*
X131639903Y-96761541D02*
X131592284Y-96666303D01*
X131592284Y-96666303D02*
X131544664Y-96618684D01*
X132345085Y-83809160D02*
X132297466Y-83856779D01*
X132297466Y-83856779D02*
X132249847Y-83952017D01*
X132249847Y-83952017D02*
X132249847Y-84190112D01*
X132249847Y-84190112D02*
X132297466Y-84285350D01*
X132297466Y-84285350D02*
X132345085Y-84332969D01*
X132345085Y-84332969D02*
X132440323Y-84380588D01*
X132440323Y-84380588D02*
X132535561Y-84380588D01*
X132535561Y-84380588D02*
X132678418Y-84332969D01*
X132678418Y-84332969D02*
X133249847Y-83761541D01*
X133249847Y-83761541D02*
X133249847Y-84380588D01*
X132249847Y-84999636D02*
X132249847Y-85094874D01*
X132249847Y-85094874D02*
X132297466Y-85190112D01*
X132297466Y-85190112D02*
X132345085Y-85237731D01*
X132345085Y-85237731D02*
X132440323Y-85285350D01*
X132440323Y-85285350D02*
X132630799Y-85332969D01*
X132630799Y-85332969D02*
X132868894Y-85332969D01*
X132868894Y-85332969D02*
X133059370Y-85285350D01*
X133059370Y-85285350D02*
X133154608Y-85237731D01*
X133154608Y-85237731D02*
X133202228Y-85190112D01*
X133202228Y-85190112D02*
X133249847Y-85094874D01*
X133249847Y-85094874D02*
X133249847Y-84999636D01*
X133249847Y-84999636D02*
X133202228Y-84904398D01*
X133202228Y-84904398D02*
X133154608Y-84856779D01*
X133154608Y-84856779D02*
X133059370Y-84809160D01*
X133059370Y-84809160D02*
X132868894Y-84761541D01*
X132868894Y-84761541D02*
X132630799Y-84761541D01*
X132630799Y-84761541D02*
X132440323Y-84809160D01*
X132440323Y-84809160D02*
X132345085Y-84856779D01*
X132345085Y-84856779D02*
X132297466Y-84904398D01*
X132297466Y-84904398D02*
X132249847Y-84999636D01*
X132345085Y-85713922D02*
X132297466Y-85761541D01*
X132297466Y-85761541D02*
X132249847Y-85856779D01*
X132249847Y-85856779D02*
X132249847Y-86094874D01*
X132249847Y-86094874D02*
X132297466Y-86190112D01*
X132297466Y-86190112D02*
X132345085Y-86237731D01*
X132345085Y-86237731D02*
X132440323Y-86285350D01*
X132440323Y-86285350D02*
X132535561Y-86285350D01*
X132535561Y-86285350D02*
X132678418Y-86237731D01*
X132678418Y-86237731D02*
X133249847Y-85666303D01*
X133249847Y-85666303D02*
X133249847Y-86285350D01*
X132583180Y-87142493D02*
X133249847Y-87142493D01*
X132202228Y-86904398D02*
X132916513Y-86666303D01*
X132916513Y-86666303D02*
X132916513Y-87285350D01*
X132868894Y-87666303D02*
X132868894Y-88428208D01*
X132249847Y-89094874D02*
X132249847Y-89190112D01*
X132249847Y-89190112D02*
X132297466Y-89285350D01*
X132297466Y-89285350D02*
X132345085Y-89332969D01*
X132345085Y-89332969D02*
X132440323Y-89380588D01*
X132440323Y-89380588D02*
X132630799Y-89428207D01*
X132630799Y-89428207D02*
X132868894Y-89428207D01*
X132868894Y-89428207D02*
X133059370Y-89380588D01*
X133059370Y-89380588D02*
X133154608Y-89332969D01*
X133154608Y-89332969D02*
X133202228Y-89285350D01*
X133202228Y-89285350D02*
X133249847Y-89190112D01*
X133249847Y-89190112D02*
X133249847Y-89094874D01*
X133249847Y-89094874D02*
X133202228Y-88999636D01*
X133202228Y-88999636D02*
X133154608Y-88952017D01*
X133154608Y-88952017D02*
X133059370Y-88904398D01*
X133059370Y-88904398D02*
X132868894Y-88856779D01*
X132868894Y-88856779D02*
X132630799Y-88856779D01*
X132630799Y-88856779D02*
X132440323Y-88904398D01*
X132440323Y-88904398D02*
X132345085Y-88952017D01*
X132345085Y-88952017D02*
X132297466Y-88999636D01*
X132297466Y-88999636D02*
X132249847Y-89094874D01*
X132249847Y-90332969D02*
X132249847Y-89856779D01*
X132249847Y-89856779D02*
X132726037Y-89809160D01*
X132726037Y-89809160D02*
X132678418Y-89856779D01*
X132678418Y-89856779D02*
X132630799Y-89952017D01*
X132630799Y-89952017D02*
X132630799Y-90190112D01*
X132630799Y-90190112D02*
X132678418Y-90285350D01*
X132678418Y-90285350D02*
X132726037Y-90332969D01*
X132726037Y-90332969D02*
X132821275Y-90380588D01*
X132821275Y-90380588D02*
X133059370Y-90380588D01*
X133059370Y-90380588D02*
X133154608Y-90332969D01*
X133154608Y-90332969D02*
X133202228Y-90285350D01*
X133202228Y-90285350D02*
X133249847Y-90190112D01*
X133249847Y-90190112D02*
X133249847Y-89952017D01*
X133249847Y-89952017D02*
X133202228Y-89856779D01*
X133202228Y-89856779D02*
X133154608Y-89809160D01*
X132868894Y-90809160D02*
X132868894Y-91571065D01*
X132249847Y-92237731D02*
X132249847Y-92332969D01*
X132249847Y-92332969D02*
X132297466Y-92428207D01*
X132297466Y-92428207D02*
X132345085Y-92475826D01*
X132345085Y-92475826D02*
X132440323Y-92523445D01*
X132440323Y-92523445D02*
X132630799Y-92571064D01*
X132630799Y-92571064D02*
X132868894Y-92571064D01*
X132868894Y-92571064D02*
X133059370Y-92523445D01*
X133059370Y-92523445D02*
X133154608Y-92475826D01*
X133154608Y-92475826D02*
X133202228Y-92428207D01*
X133202228Y-92428207D02*
X133249847Y-92332969D01*
X133249847Y-92332969D02*
X133249847Y-92237731D01*
X133249847Y-92237731D02*
X133202228Y-92142493D01*
X133202228Y-92142493D02*
X133154608Y-92094874D01*
X133154608Y-92094874D02*
X133059370Y-92047255D01*
X133059370Y-92047255D02*
X132868894Y-91999636D01*
X132868894Y-91999636D02*
X132630799Y-91999636D01*
X132630799Y-91999636D02*
X132440323Y-92047255D01*
X132440323Y-92047255D02*
X132345085Y-92094874D01*
X132345085Y-92094874D02*
X132297466Y-92142493D01*
X132297466Y-92142493D02*
X132249847Y-92237731D01*
X132249847Y-92904398D02*
X132249847Y-93523445D01*
X132249847Y-93523445D02*
X132630799Y-93190112D01*
X132630799Y-93190112D02*
X132630799Y-93332969D01*
X132630799Y-93332969D02*
X132678418Y-93428207D01*
X132678418Y-93428207D02*
X132726037Y-93475826D01*
X132726037Y-93475826D02*
X132821275Y-93523445D01*
X132821275Y-93523445D02*
X133059370Y-93523445D01*
X133059370Y-93523445D02*
X133154608Y-93475826D01*
X133154608Y-93475826D02*
X133202228Y-93428207D01*
X133202228Y-93428207D02*
X133249847Y-93332969D01*
X133249847Y-93332969D02*
X133249847Y-93047255D01*
X133249847Y-93047255D02*
X133202228Y-92952017D01*
X133202228Y-92952017D02*
X133154608Y-92904398D01*
X134859791Y-83999636D02*
X134812172Y-83904398D01*
X134812172Y-83904398D02*
X134716933Y-83856779D01*
X134716933Y-83856779D02*
X133859791Y-83856779D01*
X134812172Y-84332970D02*
X134859791Y-84428208D01*
X134859791Y-84428208D02*
X134859791Y-84618684D01*
X134859791Y-84618684D02*
X134812172Y-84713922D01*
X134812172Y-84713922D02*
X134716933Y-84761541D01*
X134716933Y-84761541D02*
X134669314Y-84761541D01*
X134669314Y-84761541D02*
X134574076Y-84713922D01*
X134574076Y-84713922D02*
X134526457Y-84618684D01*
X134526457Y-84618684D02*
X134526457Y-84475827D01*
X134526457Y-84475827D02*
X134478838Y-84380589D01*
X134478838Y-84380589D02*
X134383600Y-84332970D01*
X134383600Y-84332970D02*
X134335981Y-84332970D01*
X134335981Y-84332970D02*
X134240743Y-84380589D01*
X134240743Y-84380589D02*
X134193124Y-84475827D01*
X134193124Y-84475827D02*
X134193124Y-84618684D01*
X134193124Y-84618684D02*
X134240743Y-84713922D01*
X134859791Y-85190113D02*
X134193124Y-85190113D01*
X134383600Y-85190113D02*
X134288362Y-85237732D01*
X134288362Y-85237732D02*
X134240743Y-85285351D01*
X134240743Y-85285351D02*
X134193124Y-85380589D01*
X134193124Y-85380589D02*
X134193124Y-85475827D01*
X134859791Y-86332970D02*
X134859791Y-85761542D01*
X134859791Y-86047256D02*
X133859791Y-86047256D01*
X133859791Y-86047256D02*
X134002648Y-85952018D01*
X134002648Y-85952018D02*
X134097886Y-85856780D01*
X134097886Y-85856780D02*
X134145505Y-85761542D01*
X135803068Y-83761541D02*
X136469735Y-83999636D01*
X136469735Y-83999636D02*
X135803068Y-84237731D01*
X135564973Y-84571065D02*
X135517354Y-84618684D01*
X135517354Y-84618684D02*
X135469735Y-84713922D01*
X135469735Y-84713922D02*
X135469735Y-84952017D01*
X135469735Y-84952017D02*
X135517354Y-85047255D01*
X135517354Y-85047255D02*
X135564973Y-85094874D01*
X135564973Y-85094874D02*
X135660211Y-85142493D01*
X135660211Y-85142493D02*
X135755449Y-85142493D01*
X135755449Y-85142493D02*
X135898306Y-85094874D01*
X135898306Y-85094874D02*
X136469735Y-84523446D01*
X136469735Y-84523446D02*
X136469735Y-85142493D01*
X136374496Y-85571065D02*
X136422116Y-85618684D01*
X136422116Y-85618684D02*
X136469735Y-85571065D01*
X136469735Y-85571065D02*
X136422116Y-85523446D01*
X136422116Y-85523446D02*
X136374496Y-85571065D01*
X136374496Y-85571065D02*
X136469735Y-85571065D01*
X136469735Y-86571064D02*
X136469735Y-85999636D01*
X136469735Y-86285350D02*
X135469735Y-86285350D01*
X135469735Y-86285350D02*
X135612592Y-86190112D01*
X135612592Y-86190112D02*
X135707830Y-86094874D01*
X135707830Y-86094874D02*
X135755449Y-85999636D01*
X138450057Y-96818095D02*
X138402438Y-96865714D01*
X138402438Y-96865714D02*
X138354819Y-96960952D01*
X138354819Y-96960952D02*
X138354819Y-97199047D01*
X138354819Y-97199047D02*
X138402438Y-97294285D01*
X138402438Y-97294285D02*
X138450057Y-97341904D01*
X138450057Y-97341904D02*
X138545295Y-97389523D01*
X138545295Y-97389523D02*
X138640533Y-97389523D01*
X138640533Y-97389523D02*
X138783390Y-97341904D01*
X138783390Y-97341904D02*
X139354819Y-96770476D01*
X139354819Y-96770476D02*
X139354819Y-97389523D01*
X138450057Y-97770476D02*
X138402438Y-97818095D01*
X138402438Y-97818095D02*
X138354819Y-97913333D01*
X138354819Y-97913333D02*
X138354819Y-98151428D01*
X138354819Y-98151428D02*
X138402438Y-98246666D01*
X138402438Y-98246666D02*
X138450057Y-98294285D01*
X138450057Y-98294285D02*
X138545295Y-98341904D01*
X138545295Y-98341904D02*
X138640533Y-98341904D01*
X138640533Y-98341904D02*
X138783390Y-98294285D01*
X138783390Y-98294285D02*
X139354819Y-97722857D01*
X139354819Y-97722857D02*
X139354819Y-98341904D01*
X141674819Y-83768095D02*
X141674819Y-84339523D01*
X142674819Y-84053809D02*
X141674819Y-84053809D01*
X141674819Y-84577619D02*
X142674819Y-85244285D01*
X141674819Y-85244285D02*
X142674819Y-84577619D01*
X136694819Y-97419523D02*
X136694819Y-96848095D01*
X136694819Y-97133809D02*
X135694819Y-97133809D01*
X135694819Y-97133809D02*
X135837676Y-97038571D01*
X135837676Y-97038571D02*
X135932914Y-96943333D01*
X135932914Y-96943333D02*
X135980533Y-96848095D01*
X135694819Y-97752857D02*
X135694819Y-98419523D01*
X135694819Y-98419523D02*
X136694819Y-97990952D01*
X136892438Y-94895714D02*
X136844819Y-94800476D01*
X136844819Y-94800476D02*
X136844819Y-94657619D01*
X136844819Y-94657619D02*
X136892438Y-94514762D01*
X136892438Y-94514762D02*
X136987676Y-94419524D01*
X136987676Y-94419524D02*
X137082914Y-94371905D01*
X137082914Y-94371905D02*
X137273390Y-94324286D01*
X137273390Y-94324286D02*
X137416247Y-94324286D01*
X137416247Y-94324286D02*
X137606723Y-94371905D01*
X137606723Y-94371905D02*
X137701961Y-94419524D01*
X137701961Y-94419524D02*
X137797200Y-94514762D01*
X137797200Y-94514762D02*
X137844819Y-94657619D01*
X137844819Y-94657619D02*
X137844819Y-94752857D01*
X137844819Y-94752857D02*
X137797200Y-94895714D01*
X137797200Y-94895714D02*
X137749580Y-94943333D01*
X137749580Y-94943333D02*
X137416247Y-94943333D01*
X137416247Y-94943333D02*
X137416247Y-94752857D01*
X137844819Y-95371905D02*
X136844819Y-95371905D01*
X136844819Y-95371905D02*
X136844819Y-95752857D01*
X136844819Y-95752857D02*
X136892438Y-95848095D01*
X136892438Y-95848095D02*
X136940057Y-95895714D01*
X136940057Y-95895714D02*
X137035295Y-95943333D01*
X137035295Y-95943333D02*
X137178152Y-95943333D01*
X137178152Y-95943333D02*
X137273390Y-95895714D01*
X137273390Y-95895714D02*
X137321009Y-95848095D01*
X137321009Y-95848095D02*
X137368628Y-95752857D01*
X137368628Y-95752857D02*
X137368628Y-95371905D01*
X136844819Y-96562381D02*
X136844819Y-96657619D01*
X136844819Y-96657619D02*
X136892438Y-96752857D01*
X136892438Y-96752857D02*
X136940057Y-96800476D01*
X136940057Y-96800476D02*
X137035295Y-96848095D01*
X137035295Y-96848095D02*
X137225771Y-96895714D01*
X137225771Y-96895714D02*
X137463866Y-96895714D01*
X137463866Y-96895714D02*
X137654342Y-96848095D01*
X137654342Y-96848095D02*
X137749580Y-96800476D01*
X137749580Y-96800476D02*
X137797200Y-96752857D01*
X137797200Y-96752857D02*
X137844819Y-96657619D01*
X137844819Y-96657619D02*
X137844819Y-96562381D01*
X137844819Y-96562381D02*
X137797200Y-96467143D01*
X137797200Y-96467143D02*
X137749580Y-96419524D01*
X137749580Y-96419524D02*
X137654342Y-96371905D01*
X137654342Y-96371905D02*
X137463866Y-96324286D01*
X137463866Y-96324286D02*
X137225771Y-96324286D01*
X137225771Y-96324286D02*
X137035295Y-96371905D01*
X137035295Y-96371905D02*
X136940057Y-96419524D01*
X136940057Y-96419524D02*
X136892438Y-96467143D01*
X136892438Y-96467143D02*
X136844819Y-96562381D01*
X131854819Y-97571429D02*
X132854819Y-97809524D01*
X132854819Y-97809524D02*
X132140533Y-98000000D01*
X132140533Y-98000000D02*
X132854819Y-98190476D01*
X132854819Y-98190476D02*
X131854819Y-98428572D01*
X142734819Y-86683333D02*
X142258628Y-86350000D01*
X142734819Y-86111905D02*
X141734819Y-86111905D01*
X141734819Y-86111905D02*
X141734819Y-86492857D01*
X141734819Y-86492857D02*
X141782438Y-86588095D01*
X141782438Y-86588095D02*
X141830057Y-86635714D01*
X141830057Y-86635714D02*
X141925295Y-86683333D01*
X141925295Y-86683333D02*
X142068152Y-86683333D01*
X142068152Y-86683333D02*
X142163390Y-86635714D01*
X142163390Y-86635714D02*
X142211009Y-86588095D01*
X142211009Y-86588095D02*
X142258628Y-86492857D01*
X142258628Y-86492857D02*
X142258628Y-86111905D01*
X141734819Y-87016667D02*
X142734819Y-87683333D01*
X141734819Y-87683333D02*
X142734819Y-87016667D01*
X140944819Y-88331905D02*
X140944819Y-88950952D01*
X140944819Y-88950952D02*
X141325771Y-88617619D01*
X141325771Y-88617619D02*
X141325771Y-88760476D01*
X141325771Y-88760476D02*
X141373390Y-88855714D01*
X141373390Y-88855714D02*
X141421009Y-88903333D01*
X141421009Y-88903333D02*
X141516247Y-88950952D01*
X141516247Y-88950952D02*
X141754342Y-88950952D01*
X141754342Y-88950952D02*
X141849580Y-88903333D01*
X141849580Y-88903333D02*
X141897200Y-88855714D01*
X141897200Y-88855714D02*
X141944819Y-88760476D01*
X141944819Y-88760476D02*
X141944819Y-88474762D01*
X141944819Y-88474762D02*
X141897200Y-88379524D01*
X141897200Y-88379524D02*
X141849580Y-88331905D01*
X140944819Y-89236667D02*
X141944819Y-89570000D01*
X141944819Y-89570000D02*
X140944819Y-89903333D01*
X140944819Y-90141429D02*
X140944819Y-90760476D01*
X140944819Y-90760476D02*
X141325771Y-90427143D01*
X141325771Y-90427143D02*
X141325771Y-90570000D01*
X141325771Y-90570000D02*
X141373390Y-90665238D01*
X141373390Y-90665238D02*
X141421009Y-90712857D01*
X141421009Y-90712857D02*
X141516247Y-90760476D01*
X141516247Y-90760476D02*
X141754342Y-90760476D01*
X141754342Y-90760476D02*
X141849580Y-90712857D01*
X141849580Y-90712857D02*
X141897200Y-90665238D01*
X141897200Y-90665238D02*
X141944819Y-90570000D01*
X141944819Y-90570000D02*
X141944819Y-90284286D01*
X141944819Y-90284286D02*
X141897200Y-90189048D01*
X141897200Y-90189048D02*
X141849580Y-90141429D01*
X138982438Y-92888095D02*
X138934819Y-92792857D01*
X138934819Y-92792857D02*
X138934819Y-92650000D01*
X138934819Y-92650000D02*
X138982438Y-92507143D01*
X138982438Y-92507143D02*
X139077676Y-92411905D01*
X139077676Y-92411905D02*
X139172914Y-92364286D01*
X139172914Y-92364286D02*
X139363390Y-92316667D01*
X139363390Y-92316667D02*
X139506247Y-92316667D01*
X139506247Y-92316667D02*
X139696723Y-92364286D01*
X139696723Y-92364286D02*
X139791961Y-92411905D01*
X139791961Y-92411905D02*
X139887200Y-92507143D01*
X139887200Y-92507143D02*
X139934819Y-92650000D01*
X139934819Y-92650000D02*
X139934819Y-92745238D01*
X139934819Y-92745238D02*
X139887200Y-92888095D01*
X139887200Y-92888095D02*
X139839580Y-92935714D01*
X139839580Y-92935714D02*
X139506247Y-92935714D01*
X139506247Y-92935714D02*
X139506247Y-92745238D01*
X139934819Y-93364286D02*
X138934819Y-93364286D01*
X138934819Y-93364286D02*
X139934819Y-93935714D01*
X139934819Y-93935714D02*
X138934819Y-93935714D01*
X139934819Y-94411905D02*
X138934819Y-94411905D01*
X138934819Y-94411905D02*
X138934819Y-94650000D01*
X138934819Y-94650000D02*
X138982438Y-94792857D01*
X138982438Y-94792857D02*
X139077676Y-94888095D01*
X139077676Y-94888095D02*
X139172914Y-94935714D01*
X139172914Y-94935714D02*
X139363390Y-94983333D01*
X139363390Y-94983333D02*
X139506247Y-94983333D01*
X139506247Y-94983333D02*
X139696723Y-94935714D01*
X139696723Y-94935714D02*
X139791961Y-94888095D01*
X139791961Y-94888095D02*
X139887200Y-94792857D01*
X139887200Y-94792857D02*
X139934819Y-94650000D01*
X139934819Y-94650000D02*
X139934819Y-94411905D01*
X139902438Y-96338095D02*
X139854819Y-96242857D01*
X139854819Y-96242857D02*
X139854819Y-96100000D01*
X139854819Y-96100000D02*
X139902438Y-95957143D01*
X139902438Y-95957143D02*
X139997676Y-95861905D01*
X139997676Y-95861905D02*
X140092914Y-95814286D01*
X140092914Y-95814286D02*
X140283390Y-95766667D01*
X140283390Y-95766667D02*
X140426247Y-95766667D01*
X140426247Y-95766667D02*
X140616723Y-95814286D01*
X140616723Y-95814286D02*
X140711961Y-95861905D01*
X140711961Y-95861905D02*
X140807200Y-95957143D01*
X140807200Y-95957143D02*
X140854819Y-96100000D01*
X140854819Y-96100000D02*
X140854819Y-96195238D01*
X140854819Y-96195238D02*
X140807200Y-96338095D01*
X140807200Y-96338095D02*
X140759580Y-96385714D01*
X140759580Y-96385714D02*
X140426247Y-96385714D01*
X140426247Y-96385714D02*
X140426247Y-96195238D01*
X140854819Y-96814286D02*
X139854819Y-96814286D01*
X139854819Y-96814286D02*
X140854819Y-97385714D01*
X140854819Y-97385714D02*
X139854819Y-97385714D01*
X140854819Y-97861905D02*
X139854819Y-97861905D01*
X139854819Y-97861905D02*
X139854819Y-98100000D01*
X139854819Y-98100000D02*
X139902438Y-98242857D01*
X139902438Y-98242857D02*
X139997676Y-98338095D01*
X139997676Y-98338095D02*
X140092914Y-98385714D01*
X140092914Y-98385714D02*
X140283390Y-98433333D01*
X140283390Y-98433333D02*
X140426247Y-98433333D01*
X140426247Y-98433333D02*
X140616723Y-98385714D01*
X140616723Y-98385714D02*
X140711961Y-98338095D01*
X140711961Y-98338095D02*
X140807200Y-98242857D01*
X140807200Y-98242857D02*
X140854819Y-98100000D01*
X140854819Y-98100000D02*
X140854819Y-97861905D01*
X141954819Y-95861905D02*
X141954819Y-96480952D01*
X141954819Y-96480952D02*
X142335771Y-96147619D01*
X142335771Y-96147619D02*
X142335771Y-96290476D01*
X142335771Y-96290476D02*
X142383390Y-96385714D01*
X142383390Y-96385714D02*
X142431009Y-96433333D01*
X142431009Y-96433333D02*
X142526247Y-96480952D01*
X142526247Y-96480952D02*
X142764342Y-96480952D01*
X142764342Y-96480952D02*
X142859580Y-96433333D01*
X142859580Y-96433333D02*
X142907200Y-96385714D01*
X142907200Y-96385714D02*
X142954819Y-96290476D01*
X142954819Y-96290476D02*
X142954819Y-96004762D01*
X142954819Y-96004762D02*
X142907200Y-95909524D01*
X142907200Y-95909524D02*
X142859580Y-95861905D01*
X141954819Y-96766667D02*
X142954819Y-97100000D01*
X142954819Y-97100000D02*
X141954819Y-97433333D01*
X141954819Y-97671429D02*
X141954819Y-98290476D01*
X141954819Y-98290476D02*
X142335771Y-97957143D01*
X142335771Y-97957143D02*
X142335771Y-98100000D01*
X142335771Y-98100000D02*
X142383390Y-98195238D01*
X142383390Y-98195238D02*
X142431009Y-98242857D01*
X142431009Y-98242857D02*
X142526247Y-98290476D01*
X142526247Y-98290476D02*
X142764342Y-98290476D01*
X142764342Y-98290476D02*
X142859580Y-98242857D01*
X142859580Y-98242857D02*
X142907200Y-98195238D01*
X142907200Y-98195238D02*
X142954819Y-98100000D01*
X142954819Y-98100000D02*
X142954819Y-97814286D01*
X142954819Y-97814286D02*
X142907200Y-97719048D01*
X142907200Y-97719048D02*
X142859580Y-97671429D01*
X134769580Y-98299523D02*
X134817200Y-98251904D01*
X134817200Y-98251904D02*
X134864819Y-98109047D01*
X134864819Y-98109047D02*
X134864819Y-98013809D01*
X134864819Y-98013809D02*
X134817200Y-97870952D01*
X134817200Y-97870952D02*
X134721961Y-97775714D01*
X134721961Y-97775714D02*
X134626723Y-97728095D01*
X134626723Y-97728095D02*
X134436247Y-97680476D01*
X134436247Y-97680476D02*
X134293390Y-97680476D01*
X134293390Y-97680476D02*
X134102914Y-97728095D01*
X134102914Y-97728095D02*
X134007676Y-97775714D01*
X134007676Y-97775714D02*
X133912438Y-97870952D01*
X133912438Y-97870952D02*
X133864819Y-98013809D01*
X133864819Y-98013809D02*
X133864819Y-98109047D01*
X133864819Y-98109047D02*
X133912438Y-98251904D01*
X133912438Y-98251904D02*
X133960057Y-98299523D01*
D11*
X137700000Y-98550000D02*
X137700000Y-101450000D01*
X137700000Y-101450000D02*
X139100000Y-101450000D01*
X139100000Y-98550000D02*
X137700000Y-98550000D01*
X139100000Y-101450000D02*
X139100000Y-98550000D01*
X144610000Y-84490000D02*
G75*
G02*
X143210000Y-84490000I-700000J0D01*
G01*
X143210000Y-84490000D02*
G75*
G02*
X144610000Y-84490000I700000J0D01*
G01*
X135700000Y-98600000D02*
X135700000Y-101500000D01*
X135700000Y-101500000D02*
X137100000Y-101500000D01*
X137100000Y-98600000D02*
X135700000Y-98600000D01*
X137100000Y-101500000D02*
X137100000Y-98600000D01*
X138580000Y-97760000D02*
G75*
G02*
X137180000Y-97760000I-700000J0D01*
G01*
X137180000Y-97760000D02*
G75*
G02*
X138580000Y-97760000I700000J0D01*
G01*
X131700000Y-98700000D02*
X131700000Y-101600000D01*
X131700000Y-101600000D02*
X133100000Y-101600000D01*
X133100000Y-98700000D02*
X131700000Y-98700000D01*
X133100000Y-101600000D02*
X133100000Y-98700000D01*
X144640000Y-86680000D02*
G75*
G02*
X143240000Y-86680000I-700000J0D01*
G01*
X143240000Y-86680000D02*
G75*
G02*
X144640000Y-86680000I700000J0D01*
G01*
X143830000Y-89450000D02*
G75*
G02*
X142430000Y-89450000I-700000J0D01*
G01*
X142430000Y-89450000D02*
G75*
G02*
X143830000Y-89450000I700000J0D01*
G01*
X141752500Y-93940000D02*
G75*
G02*
X140352500Y-93940000I-700000J0D01*
G01*
X140352500Y-93940000D02*
G75*
G02*
X141752500Y-93940000I700000J0D01*
G01*
X139700000Y-98600000D02*
X139700000Y-101500000D01*
X139700000Y-101500000D02*
X141100000Y-101500000D01*
X141100000Y-98600000D02*
X139700000Y-98600000D01*
X141100000Y-101500000D02*
X141100000Y-98600000D01*
X141700000Y-98600000D02*
X141700000Y-101500000D01*
X141700000Y-101500000D02*
X143100000Y-101500000D01*
X143100000Y-98600000D02*
X141700000Y-98600000D01*
X143100000Y-101500000D02*
X143100000Y-98600000D01*
X133700000Y-98600000D02*
X133700000Y-101500000D01*
X133700000Y-101500000D02*
X135100000Y-101500000D01*
X135100000Y-98600000D02*
X133700000Y-98600000D01*
X135100000Y-101500000D02*
X135100000Y-98600000D01*
%LPC*%
D12*
X138400000Y-100050000D03*
D13*
X143910000Y-84490000D03*
D12*
X136400000Y-100050000D03*
D13*
X137880000Y-97760000D03*
D12*
X132400000Y-100050000D03*
D13*
X143940000Y-86680000D03*
X143130000Y-89450000D03*
X141052500Y-93940000D03*
D12*
X140400000Y-100050000D03*
X142400000Y-100050000D03*
X134400000Y-100050000D03*
%LPD*%
M02*
